<?xml version="1.0" encoding="utf-8"?>
<!-- Generator: Adobe Illustrator 23.0.1, SVG Export Plug-In . SVG Version: 6.00 Build 0)  -->
<svg version="1.1" id="Layer_1" xmlns="http://www.w3.org/2000/svg" xmlns:xlink="http://www.w3.org/1999/xlink" x="0px" y="0px"
	 width="607.1px" height="400px" viewBox="0 0 607.1 400" enable-background="new 0 0 607.1 400" xml:space="preserve">
<g id="Guides">
</g>
<g>
	<g id="XMLID_247_">
		<g id="XMLID_39767_">
			<g id="XMLID_39771_" opacity="0.5">
				
					<circle fill="none" stroke="#FFFFFF" stroke-width="1.556" stroke-linecap="round" stroke-linejoin="round" stroke-dasharray="9.1238,9.1238,9.1238,9.1238,9.1238,9.1238" cx="303.5" cy="195.601" r="174.244"/>
			</g>
			<g id="XMLID_39768_" opacity="0.5">
				
					<circle fill="none" stroke="#FFFFFF" stroke-width="1.556" stroke-linecap="round" stroke-linejoin="round" stroke-dasharray="9.5578,9.5578,9.5578,9.5578,9.5578,9.5578" cx="303.5" cy="195.601" r="118.647"/>
			</g>
		</g>
		<g id="XMLID_590_">
			<g id="XMLID_2081_">
				
					<path id="XMLID_2082_" fill="#D1D3D4" stroke="#000000" stroke-width="2.4" stroke-linecap="round" stroke-linejoin="round" stroke-miterlimit="10" d="
					M166.696,308.868h-10.309v-22.681c0-2.842,2.313-5.155,5.155-5.155s5.155,2.313,5.155,5.155L166.696,308.868L166.696,308.868z"
					/>
			</g>
			<g id="XMLID_1932_">
				<g>
					<g id="XMLID_17_">
						<path fill="#8EC640" d="M99.569,374.079c-1.705,0-3.093-1.387-3.093-3.093v-43.561c0-1.706,1.387-3.093,3.093-3.093h63.918
							c1.705,0,3.093,1.387,3.093,3.093v43.561c0,1.705-1.387,3.093-3.093,3.093H99.569z"/>
						
							<path fill="none" stroke="#000000" stroke-width="2.4" stroke-linecap="round" stroke-linejoin="round" stroke-miterlimit="10" d="
							M99.569,374.079c-1.705,0-3.093-1.387-3.093-3.093v-43.561c0-1.706,1.387-3.093,3.093-3.093h63.918
							c1.705,0,3.093,1.387,3.093,3.093v43.561c0,1.705-1.387,3.093-3.093,3.093H99.569z"/>
					</g>
				</g>
			</g>
			<g id="XMLID_1870_">
				
					<path id="XMLID_1896_" fill="#D1D3D4" stroke="#000000" stroke-width="2.4" stroke-linecap="round" stroke-linejoin="round" stroke-miterlimit="10" d="
					M131.528,354.23c-0.531,0-1.029-0.206-1.404-0.582l-0.079-0.071l-33.02-26.843c-0.354-0.371-0.549-0.856-0.549-1.37
					c0-0.531,0.206-1.029,0.582-1.404l33.066-33.066c0.376-0.376,0.874-0.582,1.404-0.582c0.531,0,1.029,0.206,1.404,0.582
					l33.066,33.066c0.376,0.376,0.582,0.874,0.582,1.404c0,0.514-0.194,1-0.549,1.37l-33.062,26.877l-0.037,0.037
					C132.557,354.023,132.058,354.23,131.528,354.23z"/>
			</g>
			<g id="XMLID_1868_">
				
					<path id="XMLID_1869_" fill="#FFFFFF" stroke="#000000" stroke-width="2.4" stroke-linecap="round" stroke-linejoin="round" stroke-miterlimit="10" d="
					M131.539,354.226c-0.416,0-0.814-0.127-1.153-0.368c-0.092-0.064-0.18-0.13-0.261-0.21l-0.082-0.074l-27.382-22.257v-47.191
					c0-1.705,1.387-3.093,3.093-3.093h55.673c-0.648,0.862-1.033,1.933-1.033,3.093v47.191l-27.407,22.279l-0.057,0.052
					c-0.083,0.083-0.173,0.15-0.265,0.215l-0.06,0.024l-0.068,0.067C132.235,354.132,131.892,354.226,131.539,354.226
					L131.539,354.226z"/>
			</g>
			
				<line id="XMLID_1284_" fill="none" stroke="#000000" stroke-width="2" stroke-miterlimit="10" x1="111.953" y1="294.304" x2="151.392" y2="294.304"/>
			
				<line id="XMLID_1050_" fill="none" stroke="#000000" stroke-width="2" stroke-miterlimit="10" x1="111.953" y1="300.104" x2="151.392" y2="300.104"/>
			
				<line id="XMLID_1048_" fill="none" stroke="#000000" stroke-width="2" stroke-miterlimit="10" x1="111.953" y1="305.903" x2="151.392" y2="305.903"/>
			
				<line id="XMLID_890_" fill="none" stroke="#000000" stroke-width="2" stroke-miterlimit="10" x1="111.953" y1="311.703" x2="151.392" y2="311.703"/>
			
				<line id="XMLID_625_" fill="none" stroke="#000000" stroke-width="2" stroke-miterlimit="10" x1="111.953" y1="317.503" x2="151.392" y2="317.503"/>
			
				<line id="XMLID_624_" fill="none" stroke="#000000" stroke-width="2" stroke-miterlimit="10" x1="111.953" y1="323.303" x2="151.392" y2="323.303"/>
		</g>
		<g id="XMLID_39798_">
			<g id="XMLID_40878_">
				<g id="XMLID_40880_">
					<g id="XMLID_40882_">
						<rect id="XMLID_40891_" x="155.616" y="244.133" fill="#FFFFFF" width="128.376" height="129.685"/>
						<g id="XMLID_40883_">
							<g id="XMLID_40884_">
								<g id="XMLID_40885_">
									<g id="XMLID_40886_">
										<rect id="XMLID_40890_" x="155.616" y="244.133" fill="#54DFFF" width="128.376" height="17.795"/>
										<g id="XMLID_40887_">
											<path id="XMLID_40889_" d="M167.345,249.998L167.345,249.998c-1.697,0-3.073,1.376-3.073,3.073l0,0
												c0,1.697,1.376,3.073,3.073,3.073l0,0c1.697,0,3.073-1.376,3.073-3.073l0,0
												C170.417,251.373,169.042,249.998,167.345,249.998z"/>
											<path id="XMLID_40888_" d="M179.635,249.998L179.635,249.998c-1.697,0-3.073,1.376-3.073,3.073l0,0
												c0,1.697,1.376,3.073,3.073,3.073l0,0c1.697,0,3.073-1.376,3.073-3.073l0,0
												C182.708,251.373,181.332,249.998,179.635,249.998z"/>
										</g>
									</g>
								</g>
							</g>
						</g>
					</g>
				</g>
				<g id="XMLID_654_">
					<path id="XMLID_775_" d="M215.615,326.499c0,0.533-0.19,0.99-0.571,1.371s-0.851,0.571-1.409,0.571
						c-0.381,0-0.743-0.108-1.086-0.324c-0.343-0.215-0.59-0.514-0.743-0.895l-2.133-5.333h-13.674l-2.171,5.333
						c-0.178,0.381-0.432,0.68-0.762,0.895c-0.331,0.216-0.686,0.324-1.066,0.324c-0.559,0-1.022-0.196-1.391-0.59
						c-0.368-0.394-0.552-0.857-0.552-1.39c0-0.254,0.063-0.546,0.19-0.876l10.704-25.559c0.381-0.888,1.003-1.333,1.866-1.333
						c0.914,0,1.536,0.445,1.867,1.333l10.741,25.635C215.552,325.991,215.615,326.27,215.615,326.499z M197.332,318.614h11.008
						l-5.447-13.56L197.332,318.614z"/>
					<path id="XMLID_870_" d="M224.338,327.87c-0.381-0.381-0.571-0.851-0.571-1.409v-25.787c0-0.584,0.19-1.06,0.571-1.429
						c0.381-0.368,0.851-0.552,1.409-0.552h6.895c2.869,0,5.421,0.635,7.656,1.905c2.234,1.27,3.974,3.028,5.218,5.275
						c1.244,2.247,1.866,4.806,1.866,7.675s-0.623,5.434-1.866,7.694c-1.245,2.261-2.984,4.025-5.218,5.295
						c-2.235,1.27-4.787,1.904-7.656,1.904h-6.895C225.188,328.442,224.718,328.251,224.338,327.87z M232.641,324.937
						c2.107,0,3.993-0.482,5.656-1.447c1.663-0.965,2.958-2.317,3.885-4.057c0.927-1.739,1.39-3.701,1.39-5.885
						s-0.463-4.139-1.39-5.866s-2.222-3.072-3.885-4.038c-1.664-0.965-3.549-1.447-5.656-1.447h-4.914v22.74H232.641z"/>
				</g>
			</g>
			
				<rect id="XMLID_40877_" x="155.616" y="244.133" fill="none" stroke="#000000" stroke-width="2.4" stroke-linecap="round" stroke-linejoin="round" stroke-miterlimit="10" width="128.376" height="129.685"/>
			
				<line id="XMLID_40876_" fill="none" stroke="#000000" stroke-width="2.4" stroke-linecap="round" stroke-linejoin="round" stroke-miterlimit="10" x1="155.599" y1="261.526" x2="284.337" y2="261.526"/>
		</g>
		<g id="XMLID_39727_">
			<g id="XMLID_39729_">
				<g id="XMLID_39730_">
					<g>
						<defs>
							<polygon id="SVGID_1_" points="442.345,178.987 450.252,184.719 463.615,189.573 475.23,191.399 491.673,187.589 
								499.916,182.35 506.005,176.386 506.005,125.2 473.073,113.669 442.345,132.374 							"/>
						</defs>
						<clipPath id="SVGID_2_">
							<use xlink:href="#SVGID_1_"  overflow="visible"/>
						</clipPath>
						<g id="XMLID_39732_" clip-path="url(#SVGID_2_)">
							<g id="XMLID_39739_">
								<path id="XMLID_39748_" fill="#FFF3DD" d="M470.983,152.181l-6.331-4.391l-3.574-4.186l-0.947-5.283l3.4-8.476l4.082-2.987
									l6.562-1.736c0,0,8.55,1.634,8.856,1.94s3.946,5.718,3.946,6.126s0.546,7.556,0.342,7.964
									c-0.204,0.408-2.511,6.372-2.715,6.678s-5.76,3.736-6.168,3.838C478.028,151.772,470.983,152.181,470.983,152.181z"/>
								<path id="XMLID_39740_" stroke="#000000" stroke-width="0.5" stroke-miterlimit="10" d="M474.175,123.632
									c-8.099,0-14.689,6.589-14.689,14.689c0,8.099,6.589,14.688,14.689,14.688c8.099,0,14.688-6.589,14.688-14.688
									C488.863,130.221,482.274,123.632,474.175,123.632z M474.175,151.123c-7.059,0-12.802-5.743-12.802-12.802
									s5.743-12.803,12.802-12.803s12.803,5.743,12.803,12.803C486.978,145.38,481.234,151.123,474.175,151.123z"/>
							</g>
							<g id="XMLID_39733_">
								<polygon id="XMLID_39736_" fill="#F7941E" points="446.216,190.913 502.379,190.913 500.857,182.711 497.11,175.288 
									489.268,167.795 482.962,165.199 472.408,163.049 461.267,166.567 453.253,173.212 448.366,182.203 								"/>
								<path id="XMLID_39734_" stroke="#000000" stroke-width="0.5" stroke-miterlimit="10" d="M447.627,190.553
									c0-14.639,11.909-26.548,26.548-26.548s26.548,11.909,26.548,26.548c0,0.52,0.423,0.943,0.943,0.943
									s0.943-0.423,0.943-0.943c0-15.679-12.755-28.435-28.434-28.435s-28.434,12.756-28.434,28.435
									c0,0.52,0.423,0.943,0.943,0.943C447.204,191.496,447.627,191.074,447.627,190.553z"/>
							</g>
						</g>
					</g>
				</g>
			</g>
			
				<ellipse id="XMLID_39728_" transform="matrix(0.1735 -0.9848 0.9848 0.1735 249.4934 586.4981)" fill="none" stroke="#000000" stroke-width="2.4" stroke-miterlimit="10" cx="474.175" cy="144.604" rx="46.262" ry="46.262"/>
		</g>
		<g id="XMLID_39582_">
			<g id="XMLID_39584_">
				<g id="XMLID_39585_">
					<g>
						<defs>
							<polygon id="SVGID_3_" points="392.063,89.664 396.017,92.531 402.698,94.957 408.506,95.87 416.727,93.965 420.849,91.346 
								423.893,88.364 423.893,62.771 407.427,57.005 392.063,66.358 							"/>
						</defs>
						<clipPath id="SVGID_4_">
							<use xlink:href="#SVGID_3_"  overflow="visible"/>
						</clipPath>
						<g id="XMLID_39587_" clip-path="url(#SVGID_4_)">
							<g id="XMLID_39594_">
								<path id="XMLID_39601_" fill="#FFF3DD" d="M406.382,76.261l-3.165-2.195l-1.787-2.093l-0.473-2.642l1.7-4.238l2.041-1.493
									l3.281-0.868c0,0,4.275,0.817,4.428,0.97s1.973,2.859,1.973,3.063s0.273,3.778,0.171,3.982
									c-0.102,0.204-1.256,3.186-1.358,3.339s-2.88,1.868-3.084,1.919C409.905,76.057,406.382,76.261,406.382,76.261z"/>
								<path id="XMLID_39595_" stroke="#000000" stroke-width="0.5" stroke-miterlimit="10" d="M407.978,61.987
									c-4.05,0-7.344,3.295-7.344,7.345s3.295,7.344,7.344,7.344c4.05,0,7.344-3.295,7.344-7.344
									C415.322,65.281,412.028,61.987,407.978,61.987z M407.978,75.732c-3.529,0-6.401-2.872-6.401-6.401
									c0-3.53,2.872-6.401,6.401-6.401c3.53,0,6.401,2.872,6.401,6.401C414.379,72.861,411.508,75.732,407.978,75.732z"/>
							</g>
							<g id="XMLID_39588_">
								<polygon id="XMLID_39591_" fill="#F7941E" points="393.999,95.628 422.08,95.628 421.319,91.526 419.446,87.815 
									415.524,84.068 412.372,82.77 407.094,81.695 401.524,83.454 397.517,86.777 395.074,91.273 								"/>
								<path id="XMLID_39589_" stroke="#000000" stroke-width="0.5" stroke-miterlimit="10" d="M394.704,95.448
									c0-7.319,5.955-13.274,13.274-13.274s13.274,5.955,13.274,13.274c0,0.26,0.211,0.471,0.471,0.471s0.471-0.211,0.471-0.471
									c0-7.839-6.378-14.217-14.217-14.217s-14.217,6.378-14.217,14.217c0,0.26,0.212,0.471,0.472,0.471
									S394.704,95.708,394.704,95.448z"/>
							</g>
						</g>
					</g>
				</g>
			</g>
			
				<circle id="XMLID_39583_" fill="none" stroke="#000000" stroke-width="2.4" stroke-miterlimit="10" cx="407.978" cy="72.473" r="23.131"/>
		</g>
		<g id="XMLID_39252_">
			<g id="XMLID_39258_">
				<g id="XMLID_39271_">
					<rect id="XMLID_39272_" x="239.575" y="87.956" fill="#54DFFF" width="4.815" height="16.37"/>
				</g>
				<g id="XMLID_39269_">
					<path id="XMLID_39270_" fill="#F1F2F2" d="M250.168,106.253c-2.124,0-3.852-1.728-3.852-3.852V86.607
						c1.128-2.322,5.537-11.536,5.537-13.739c0-0.56,0.781-0.576,0.871-0.576c0.799,0,2.152,0.621,2.152,2.949
						c0,1.042-0.353,2.001-0.725,3.016c-0.604,1.642-1.287,3.503-0.654,6.077l0.788,0.077l12.253,0.657
						c1.062,0,1.926,0.863,1.926,1.926s-0.864,1.926-1.926,1.926v1.926c1.062,0,1.926,0.863,1.926,1.926s-0.864,1.926-1.926,1.926
						v1.926c1.062,0,1.926,0.863,1.926,1.926s-0.864,1.926-1.926,1.926v1.926c1.062,0,1.926,0.863,1.926,1.926
						s-0.864,1.926-1.926,1.926h-16.37V106.253z"/>
				</g>
				<g id="XMLID_39267_">
					<path id="XMLID_39268_" stroke="#000000" stroke-width="0.5" stroke-miterlimit="10" d="M267.501,90.845h-1.926
						c-0.532,0-0.963-0.431-0.963-0.963s0.431-0.963,0.963-0.963h1.926c0.532,0,0.963,0.431,0.963,0.963
						S268.033,90.845,267.501,90.845z"/>
				</g>
				<g id="XMLID_39265_">
					<path id="XMLID_39266_" stroke="#000000" stroke-width="0.5" stroke-miterlimit="10" d="M267.501,96.623h-1.926
						c-0.532,0-0.963-0.431-0.963-0.963s0.431-0.963,0.963-0.963h1.926c0.532,0,0.963,0.431,0.963,0.963
						S268.033,96.623,267.501,96.623z"/>
				</g>
				<g id="XMLID_39263_">
					<path id="XMLID_39264_" stroke="#000000" stroke-width="0.5" stroke-miterlimit="10" d="M267.501,102.401h-1.926
						c-0.532,0-0.963-0.431-0.963-0.963s0.431-0.963,0.963-0.963h1.926c0.532,0,0.963,0.431,0.963,0.963
						S268.033,102.401,267.501,102.401z"/>
				</g>
				<g id="XMLID_39259_">
					<path id="XMLID_39260_" stroke="#000000" stroke-width="0.5" stroke-miterlimit="10" d="M245.353,106.253h-6.741
						c-0.532,0-0.963-0.431-0.963-0.963V86.993c0-0.532,0.431-0.963,0.963-0.963h6.741c0.532,0,0.963,0.431,0.963,0.963v18.296
						C246.316,105.822,245.885,106.253,245.353,106.253z M239.575,104.327h4.815v-16.37h-4.815V104.327z"/>
				</g>
			</g>
			<g id="XMLID_39253_">
				<path id="XMLID_39254_" stroke="#000000" stroke-width="0.5" stroke-miterlimit="10" d="M266.538,108.179h-16.37
					c-3.186,0-5.778-2.592-5.778-5.778V86.385c0-0.147,0.033-0.291,0.097-0.422c2.259-4.631,5.44-11.755,5.44-13.095
					c0-1.45,1.176-2.502,2.797-2.502c2.027,0,4.078,1.675,4.078,4.875c0,1.385-0.429,2.552-0.844,3.68
					c-0.487,1.325-0.95,2.587-0.731,4.221h11.312c2.124,0,3.852,1.727,3.852,3.852c0,1.149-0.506,2.183-1.307,2.889
					c0.801,0.706,1.307,1.74,1.307,2.889s-0.506,2.183-1.307,2.889c0.801,0.706,1.307,1.74,1.307,2.889s-0.506,2.183-1.307,2.889
					c0.801,0.706,1.307,1.74,1.307,2.889C270.39,106.451,268.662,108.179,266.538,108.179z M246.316,86.607v15.794
					c0,2.124,1.728,3.852,3.852,3.852h16.37c1.062,0,1.926-0.864,1.926-1.926c0-1.062-0.864-1.926-1.926-1.926
					c-0.532,0-0.963-0.431-0.963-0.963s0.431-0.963,0.963-0.963c1.062,0,1.926-0.864,1.926-1.926c0-1.062-0.864-1.926-1.926-1.926
					c-0.532,0-0.963-0.431-0.963-0.963s0.431-0.963,0.963-0.963c1.062,0,1.926-0.864,1.926-1.926s-0.864-1.926-1.926-1.926
					c-0.532,0-0.963-0.431-0.963-0.963s0.431-0.963,0.963-0.963c1.062,0,1.926-0.864,1.926-1.926s-0.864-1.926-1.926-1.926h-12.107
					c-0.443,0-0.829-0.303-0.935-0.733c-0.633-2.575,0.051-4.436,0.654-6.077c0.373-1.015,0.725-1.973,0.725-3.016
					c0-2.328-1.352-2.949-2.152-2.949c-0.089,0-0.871,0.016-0.871,0.576C251.853,75.071,247.444,84.285,246.316,86.607z"/>
			</g>
		</g>
		<g id="XMLID_38985_">
			<path id="XMLID_38995_" fill="#ED1C24" d="M229.811,35.495c-4.192-4.192-9.766-6.501-15.694-6.501s-11.502,2.309-15.694,6.501
				s-6.501,9.766-6.501,15.694s2.309,11.502,6.501,15.694s9.766,6.501,15.694,6.501s11.502-2.309,15.694-6.501
				s6.501-9.766,6.501-15.694S234.003,39.687,229.811,35.495z M199.342,36.414c3.793-3.793,8.787-5.947,14.124-6.109v2.87
				c-0.008,0-0.016,0-0.024,0.001c-4.557,0.17-8.844,2.04-12.071,5.267s-5.097,7.514-5.267,12.071c0,0.008,0,0.016-0.001,0.024
				h-2.87C193.395,45.201,195.549,40.207,199.342,36.414z M205.822,65.716c-0.896-0.513-1.749-1.112-2.547-1.792
				c-0.273-0.233-0.684-0.201-0.917,0.073c-0.233,0.273-0.201,0.684,0.073,0.917c3.102,2.647,6.978,4.144,11.036,4.288v2.871
				c-5.337-0.162-10.332-2.316-14.124-6.109c-3.793-3.793-5.947-8.787-6.109-14.124h2.87c0.144,4.057,1.642,7.934,4.288,11.036
				c0.129,0.151,0.311,0.228,0.495,0.228c0.149,0,0.299-0.051,0.422-0.156c0.273-0.233,0.306-0.643,0.073-0.917
				c-2.445-2.865-3.833-6.444-3.976-10.192h3.507c0.359,0,0.65-0.291,0.65-0.65s-0.291-0.65-0.65-0.65h-3.507
				c0.163-4.219,1.897-8.188,4.886-11.176c2.988-2.988,6.956-4.723,11.176-4.886v3.507c0,0.359,0.291,0.65,0.65,0.65
				s0.65-0.291,0.65-0.65v-3.507c3.747,0.143,7.327,1.531,10.192,3.976c0.273,0.233,0.684,0.201,0.917-0.073
				c0.233-0.273,0.201-0.684-0.073-0.917c-3.102-2.647-6.979-4.145-11.036-4.289v-2.87c5.337,0.162,10.332,2.316,14.124,6.109
				c3.793,3.793,5.947,8.787,6.109,14.124h-2.87c-0.144-4.057-1.642-7.934-4.289-11.036c-0.233-0.273-0.644-0.306-0.917-0.073
				c-0.273,0.233-0.306,0.643-0.073,0.917c2.445,2.866,3.833,6.444,3.976,10.192h-3.507c-0.359,0-0.65,0.291-0.65,0.65
				s0.291,0.65,0.65,0.65h3.507c-0.163,4.219-1.897,8.188-4.886,11.176c-1.064,1.064-2.252,1.967-3.531,2.699l-1.3,0.67
				c-0.483,0.222-0.977,0.421-1.479,0.597l-1.301,0.395c-1.156,0.3-2.35,0.478-3.565,0.525v-3.507c0-0.359-0.291-0.65-0.65-0.65
				s-0.65,0.291-0.65,0.65V67.9c-1.212-0.046-2.406-0.223-3.564-0.523l-1.301-0.394c-0.502-0.175-0.996-0.375-1.479-0.598
				L205.822,65.716z M228.891,65.963c-3.793,3.793-8.787,5.947-14.124,6.109v-2.87c0.008,0,0.016,0,0.024-0.001
				c4.557-0.17,8.844-2.04,12.071-5.267c3.227-3.227,5.097-7.514,5.267-12.071c0-0.008,0-0.016,0.001-0.024H235
				C234.838,57.176,232.684,62.171,228.891,65.963z"/>
		</g>
		<g id="XMLID_38961_">
			<g id="XMLID_38965_">
				<polygon id="XMLID_38983_" fill="#D1D3D4" points="142.174,188.123 144.197,189.558 145.749,191.253 146.469,194.357 
					145.957,196.671 144.454,198.799 142.432,200.236 141.964,199.66 				"/>
				<g id="XMLID_38967_">
					<polygon id="XMLID_38982_" fill="#D1D3D4" points="109.587,200.073 112.955,213.618 113.961,214.983 115.645,215.839 
						120.724,215.839 121.715,214.674 122.178,212.877 118.53,207.03 117.992,203.927 117.851,199.957 					"/>
					<polygon id="XMLID_38974_" fill="#D1D3D4" points="118.703,200.096 118.703,188.531 122.866,187.98 127.505,185.604 
						131.719,182.431 135.679,179.076 137.581,176.654 139.065,175.499 140.975,176.119 141.703,177.99 141.703,186.879 
						141.41,210.564 141.057,212.175 139.957,212.797 137.976,212.11 135.111,209.155 131.585,205.778 127.674,202.806 
						122.131,200.445 					"/>
					<polygon id="XMLID_38973_" fill="#54DFFF" points="119.703,200.096 119.703,187.98 108.225,188.194 106.051,189.099 
						104.779,191.558 105.056,196.153 105.761,198.824 108.218,200.165 					"/>
					<g id="XMLID_38968_">
						
							<path id="XMLID_38972_" fill="none" stroke="#000000" stroke-width="2.4" stroke-linecap="round" stroke-linejoin="round" stroke-miterlimit="10" d="
							M139.071,175.499h0.402c1.37,0,2.49,1.121,2.49,2.49v32.379c0,1.37-1.12,2.491-2.49,2.491h-0.402
							c-1.386,0-9.974-12.694-19.167-12.694H108.46c-1.855,0-3.375-1.518-3.375-3.374v-5.222c0-1.856,1.519-3.375,3.375-3.375
							h11.444C129.099,188.194,137.685,175.499,139.071,175.499L139.071,175.499z"/>
						
							<path id="XMLID_38971_" fill="none" stroke="#000000" stroke-width="2.4" stroke-linecap="round" stroke-linejoin="round" stroke-miterlimit="10" d="
							M141.925,188.123c2.625,0.763,4.544,3.186,4.544,6.057s-1.919,5.294-4.544,6.057"/>
						
							<line id="XMLID_38970_" fill="none" stroke="#000000" stroke-width="2.4" stroke-linecap="round" stroke-linejoin="round" stroke-miterlimit="10" x1="120.121" y1="188.194" x2="120.121" y2="200.165"/>
						
							<path id="XMLID_38969_" fill="none" stroke="#000000" stroke-width="2.4" stroke-linecap="round" stroke-linejoin="round" stroke-miterlimit="10" d="
							M117.386,200.165c0.465,2.648-0.215,5.411,1.395,7.944l2.725,4.288c0.685,1.078-0.421,2.952-1.655,2.952h-4.089
							c-1.236,0-2.548-1.004-2.843-2.249l-3.065-12.936h7.532V200.165z"/>
					</g>
				</g>
			</g>
		</g>
		<g id="XMLID_37579_">
			<path id="XMLID_37588_" stroke="#000000" stroke-width="0.5" stroke-miterlimit="10" d="M461.784,84.654v-5.241h-1.245
				c-1.622,0-2.936-1.315-2.936-2.936V56.489c0-1.622,1.315-2.936,2.936-2.936h18.07c0.492,0,0.891,0.4,0.891,0.892
				c0,0.491-0.4,0.891-0.891,0.891h-18.07c-0.637,0-1.154,0.516-1.154,1.154v19.987c0,0.637,0.517,1.154,1.154,1.154h2.135
				c0.492,0,0.891,0.399,0.891,0.891v4.294l3.604-4.827c0.168-0.225,0.433-0.358,0.715-0.358h17.433
				c0.637,0,1.154-0.517,1.154-1.154v-6.294c0-0.491,0.4-0.891,0.891-0.891s0.891,0.4,0.891,0.891v6.293
				c0,1.622-1.315,2.936-2.936,2.936H468.33l-4.436,5.942c-0.302,0.404-0.829,0.57-1.308,0.411l0,0
				C462.107,85.607,461.784,85.159,461.784,84.654z"/>
			<g id="XMLID_37580_">
				<path id="XMLID_37581_" stroke="#000000" stroke-width="0.5" stroke-miterlimit="10" d="M509.667,43.878h-24.595
					c-1.619,0-2.936,1.317-2.936,2.936v17.023c0,1.619,1.317,2.935,2.936,2.935h15.729l4.953,6.602
					c0.168,0.222,0.435,0.355,0.712,0.355c0.093,0,0.187-0.015,0.283-0.046c0.364-0.122,0.608-0.461,0.608-0.845v-6.065h2.31
					c1.619,0,2.936-1.316,2.936-2.935V46.814C512.603,45.195,511.286,43.878,509.667,43.878z M505.575,65.88v4.285l-3.617-4.82
					c-0.168-0.223-0.434-0.356-0.712-0.356h-16.174c-0.636,0-1.154-0.517-1.154-1.153V46.814c0-0.637,0.517-1.154,1.154-1.154
					h24.595c0.636,0,1.153,0.517,1.153,1.154v17.023c0,0.636-0.517,1.153-1.153,1.153h-3.201
					C505.975,64.989,505.575,65.389,505.575,65.88z"/>
			</g>
		</g>
		<g id="XMLID_39801_">
			<rect id="XMLID_40875_" x="263.564" y="209.199" fill="#FFFFFF" width="258.008" height="149.755"/>
			<rect id="XMLID_40874_" x="262.747" y="209.386" fill="#54DFFF" width="258.826" height="22.605"/>
			
				<line id="XMLID_40873_" fill="none" stroke="#1D1D1D" stroke-width="5.6511" stroke-linecap="round" stroke-linejoin="round" stroke-miterlimit="10" x1="487.48" y1="220.688" x2="487.48" y2="220.688"/>
			
				<line id="XMLID_40872_" fill="none" stroke="#1D1D1D" stroke-width="5.6511" stroke-linecap="round" stroke-linejoin="round" stroke-miterlimit="10" x1="498.782" y1="220.688" x2="498.782" y2="220.688"/>
			
				<line id="XMLID_40871_" fill="none" stroke="#1D1D1D" stroke-width="5.6511" stroke-linecap="round" stroke-linejoin="round" stroke-miterlimit="10" x1="510.084" y1="220.688" x2="510.084" y2="220.688"/>
			<g id="XMLID_39809_">
				<g id="XMLID_39853_">
					<g id="XMLID_40742_">
						<rect id="XMLID_40870_" x="263.241" y="232.356" fill="#F9F8F7" width="259.029" height="141.461"/>
						<g id="XMLID_40761_">
							<g id="XMLID_40855_">
								<g id="XMLID_40863_">
									<rect id="XMLID_40869_" x="333.056" y="325.238" fill="#EFECEA" width="145.464" height="21.542"/>
									<g id="XMLID_40864_">
										<g id="XMLID_40865_">
											<path id="XMLID_40868_" fill="#D6D6D6" d="M473.49,332.639H358.857c-0.599,0-1.084-0.485-1.084-1.084v-0.001
												c0-0.599,0.485-1.084,1.084-1.084H473.49c0.599,0,1.084,0.485,1.084,1.084v0.001
												C474.574,332.153,474.089,332.639,473.49,332.639z"/>
											<path id="XMLID_40867_" fill="#D6D6D6" d="M473.49,337.641H358.857c-0.599,0-1.084-0.485-1.084-1.084l0,0
												c0-0.599,0.485-1.084,1.084-1.084H473.49c0.599,0,1.084,0.485,1.084,1.084l0,0
												C474.574,337.156,474.089,337.641,473.49,337.641z"/>
											<path id="XMLID_40866_" fill="#D6D6D6" d="M448.052,342.644h-89.195c-0.599,0-1.084-0.485-1.084-1.084l0,0
												c0-0.599,0.485-1.084,1.084-1.084h89.195c0.599,0,1.084,0.485,1.084,1.084l0,0
												C449.136,342.159,448.651,342.644,448.052,342.644z"/>
										</g>
									</g>
								</g>
								<g id="XMLID_40856_">
									<rect id="XMLID_40862_" x="333.056" y="349.209" fill="#EFECEA" width="145.464" height="21.542"/>
									<g id="XMLID_40857_">
										<g id="XMLID_40858_">
											<path id="XMLID_40861_" fill="#D6D6D6" d="M473.49,356.608H358.857c-0.599,0-1.084-0.485-1.084-1.084v-0.001
												c0-0.599,0.485-1.084,1.084-1.084H473.49c0.599,0,1.084,0.485,1.084,1.084v0.001
												C474.574,356.123,474.089,356.608,473.49,356.608z"/>
											<path id="XMLID_40860_" fill="#D6D6D6" d="M473.49,361.612H358.857c-0.599,0-1.084-0.485-1.084-1.084v-0.001
												c0-0.599,0.485-1.084,1.084-1.084H473.49c0.599,0,1.084,0.485,1.084,1.084v0.001
												C474.574,361.127,474.089,361.612,473.49,361.612z"/>
											<path id="XMLID_40859_" fill="#D6D6D6" d="M448.052,366.614h-89.195c-0.599,0-1.084-0.485-1.084-1.084l0,0
												c0-0.599,0.485-1.084,1.084-1.084h89.195c0.599,0,1.084,0.485,1.084,1.084l0,0
												C449.136,366.128,448.651,366.614,448.052,366.614z"/>
										</g>
									</g>
								</g>
							</g>
							<g id="XMLID_40762_">
								<g id="XMLID_40832_">
									<g id="XMLID_40852_">
										<rect id="XMLID_40854_" x="263.241" y="232.469" fill="#ED1C24" width="259.029" height="7.351"/>
										<rect id="XMLID_40853_" x="263.241" y="243.496" fill="#3D5C95" width="259.029" height="12.01"/>
									</g>
									<g id="XMLID_40833_">
										<g id="XMLID_40838_">
											<g id="XMLID_40849_">
												<path id="XMLID_40851_" fill="#F9F8F7" d="M452.75,251.114h-0.45c0.398-0.395,0.649-0.942,0.649-1.549
													c0-1.202-0.975-2.178-2.177-2.178c-1.204,0-2.178,0.975-2.178,2.178c0,0.607,0.248,1.154,0.649,1.549h-0.415
													c-1.005,0-1.826,0.76-1.826,1.688h7.577C454.577,251.874,453.756,251.114,452.75,251.114z"/>
												<path id="XMLID_40850_" fill="#F94932" d="M454.577,247.653c0,1.046-0.849,1.894-1.894,1.894
													c-1.047,0-1.894-0.848-1.894-1.894c0-1.047,0.847-1.895,1.894-1.895C453.728,245.758,454.577,246.606,454.577,247.653z"
													/>
											</g>
											<g id="XMLID_40842_">
												<path id="XMLID_40844_" fill="#F9F8F7" d="M464.75,246.945h-3.543c-0.8,0-1.453,0.655-1.453,1.454v2.232
													c0,0.799,0.653,1.453,1.453,1.453h1.947l1.141,1.159v-1.159h0.455c0.8,0,1.453-0.654,1.453-1.453v-2.232
													C466.203,247.6,465.549,246.945,464.75,246.945z M461.162,250.094c-0.293,0-0.529-0.237-0.529-0.53
													c0-0.292,0.236-0.53,0.529-0.53c0.292,0,0.531,0.238,0.531,0.53C461.693,249.857,461.454,250.094,461.162,250.094z
													 M462.979,250.094c-0.292,0-0.531-0.237-0.531-0.53c0-0.292,0.239-0.53,0.531-0.53c0.293,0,0.53,0.238,0.53,0.53
													C463.51,249.857,463.272,250.094,462.979,250.094z M464.795,250.094c-0.292,0-0.53-0.237-0.53-0.53
													c0-0.292,0.238-0.53,0.53-0.53c0.293,0,0.53,0.238,0.53,0.53C465.325,249.857,465.087,250.094,464.795,250.094z"/>
												<path id="XMLID_40843_" fill="#F94932" d="M467.694,247.653c0,1.046-0.849,1.894-1.895,1.894
													c-1.047,0-1.892-0.848-1.892-1.894c0-1.047,0.846-1.895,1.892-1.895S467.694,246.606,467.694,247.653z"/>
											</g>
											<g id="XMLID_40839_">
												<path id="XMLID_40841_" fill="#F9F8F7" d="M477.606,249.619c0,1.758-1.423,3.183-3.181,3.183s-3.181-1.425-3.181-3.183
													c0-1.757,1.423-3.182,3.181-3.182C476.184,246.437,477.606,247.862,477.606,249.619z"/>
												<path id="XMLID_40840_" fill="#F94932" d="M478.966,247.653c0,1.046-0.847,1.894-1.894,1.894
													c-1.046,0-1.895-0.848-1.895-1.894c0-1.047,0.849-1.895,1.895-1.895C478.119,245.758,478.966,246.606,478.966,247.653z"
													/>
											</g>
										</g>
										<g id="XMLID_40834_">
											<path id="XMLID_40837_" fill="#F9F8F7" d="M489.364,246.858c0,0.403-0.326,0.729-0.728,0.729
												c-0.403,0-0.729-0.326-0.729-0.729c0-0.402,0.326-0.729,0.729-0.729C489.038,246.129,489.364,246.455,489.364,246.858z"
												/>
											<path id="XMLID_40836_" fill="#F9F8F7" d="M489.364,249.619c0,0.403-0.326,0.729-0.728,0.729
												c-0.403,0-0.729-0.326-0.729-0.729c0-0.402,0.326-0.729,0.729-0.729C489.038,248.891,489.364,249.217,489.364,249.619z"
												/>
											<path id="XMLID_40835_" fill="#F9F8F7" d="M489.364,252.381c0,0.402-0.326,0.729-0.728,0.729
												c-0.403,0-0.729-0.327-0.729-0.729c0-0.403,0.326-0.729,0.729-0.729C489.038,251.652,489.364,251.978,489.364,252.381z"
												/>
										</g>
									</g>
								</g>
								<g id="XMLID_40763_">
									<g id="XMLID_40799_">
										<rect id="XMLID_40831_" x="277.459" y="255.506" fill="#7D9BCC" width="201.061" height="55.374"/>
										<g id="XMLID_40822_">
											<g id="XMLID_40828_">
												<rect id="XMLID_40830_" x="333.056" y="310.88" fill="#D6D6D6" width="29.091" height="11.774"/>
												<rect id="XMLID_40829_" x="362.147" y="310.88" fill="#E3E4E5" width="29.094" height="11.774"/>
											</g>
											<g id="XMLID_40825_">
												<rect id="XMLID_40827_" x="391.241" y="310.88" fill="#D6D6D6" width="29.093" height="11.774"/>
												<rect id="XMLID_40826_" x="420.334" y="310.88" fill="#E3E4E5" width="29.092" height="11.774"/>
											</g>
											<g id="XMLID_40823_">
												<rect id="XMLID_40824_" x="449.429" y="310.88" fill="#D6D6D6" width="29.091" height="11.774"/>
											</g>
										</g>
										<g id="XMLID_40800_">
											<g id="XMLID_40809_">
												<rect id="XMLID_40821_" x="287.984" y="277.583" fill="#E3E4E5" width="45.072" height="45.071"/>
												<g id="XMLID_40810_">
													<g id="XMLID_40811_">
														<g id="XMLID_40816_">
															<path id="XMLID_40819_" fill="#8BA06D" d="M302.272,295.657c0.094,0.059,0.193,0.133,0.299,0.225
																c0,0.006,0,0.012,0,0.018C302.494,295.829,302.393,295.74,302.272,295.657z"/>
															<g id="XMLID_40817_">
																<path id="XMLID_40818_" fill="#D1CFC9" d="M309.751,319.053c0,0.211,0.166,0.382,0.373,0.382
																	c0.206,0,0.372-0.171,0.372-0.382s-0.167-0.383-0.372-0.383C309.917,318.67,309.751,318.842,309.751,319.053z"/>
															</g>
														</g>
													</g>
												</g>
											</g>
											<g id="XMLID_40801_">
												<rect id="XMLID_40808_" x="287.984" y="324.986" fill="#EFECEA" width="41.37" height="48.832"/>
												<g id="XMLID_40802_">
													<path id="XMLID_40807_" fill="#D6D6D6" d="M324.491,333.096h-31.708c-1.045,0-1.892-0.847-1.892-1.892l0,0
														c0-1.045,0.847-1.892,1.892-1.892h31.708c1.045,0,1.892,0.847,1.892,1.892l0,0
														C326.383,332.249,325.536,333.096,324.491,333.096z"/>
													<path id="XMLID_40806_" fill="#D6D6D6" d="M324.491,341.832h-31.708c-1.045,0-1.892-0.847-1.892-1.892l0,0
														c0-1.045,0.847-1.892,1.892-1.892h31.708c1.045,0,1.892,0.847,1.892,1.892l0,0
														C326.383,340.984,325.536,341.832,324.491,341.832z"/>
													<path id="XMLID_40805_" fill="#D6D6D6" d="M317.804,350.566h-25.021c-1.045,0-1.892-0.847-1.892-1.892v-0.001
														c0-1.045,0.847-1.892,1.892-1.892h25.021c1.045,0,1.893,0.847,1.893,1.892v0.001
														C319.697,349.719,318.849,350.566,317.804,350.566z"/>
													<path id="XMLID_40804_" fill="#D6D6D6" d="M324.491,359.302h-31.708c-1.045,0-1.892-0.847-1.892-1.892v-0.001
														c0-1.045,0.847-1.892,1.892-1.892h31.708c1.045,0,1.892,0.847,1.892,1.892v0.001
														C326.383,358.455,325.536,359.302,324.491,359.302z"/>
													<path id="XMLID_40803_" fill="#D6D6D6" d="M313.038,368.034h-20.254c-1.045,0-1.892-0.847-1.892-1.893l0,0
														c0-1.045,0.847-1.892,1.892-1.892h20.254c1.045,0,1.892,0.847,1.892,1.892l0,0
														C314.93,367.187,314.083,368.034,313.038,368.034z"/>
												</g>
											</g>
										</g>
									</g>
									<g id="XMLID_40764_">
										<rect id="XMLID_40798_" x="482.15" y="255.506" fill="#EFECEA" width="40.119" height="118.312"/>
										<g id="XMLID_40765_">
											<g id="XMLID_40794_">
												<g id="XMLID_40795_">
													<path id="XMLID_40797_" fill="#D6D6D6" d="M515.419,265.934h-20.083c-0.599,0-1.084-0.485-1.084-1.084l0,0
														c0-0.599,0.485-1.084,1.084-1.084h20.083c0.599,0,1.084,0.485,1.084,1.084l0,0
														C516.503,265.449,516.017,265.934,515.419,265.934z"/>
													<path id="XMLID_40796_" fill="#D6D6D6" d="M507.1,270.008h-11.765c-0.599,0-1.084-0.485-1.084-1.084l0,0
														c0-0.599,0.485-1.084,1.084-1.084H507.1c0.599,0,1.084,0.485,1.084,1.084l0,0
														C508.184,269.523,507.699,270.008,507.1,270.008z"/>
												</g>
											</g>
											<g id="XMLID_40790_">
												<g id="XMLID_40791_">
													<path id="XMLID_40793_" fill="#D6D6D6" d="M515.419,279.514h-20.083c-0.599,0-1.084-0.485-1.084-1.084l0,0
														c0-0.599,0.485-1.084,1.084-1.084h20.083c0.599,0,1.084,0.485,1.084,1.084l0,0
														C516.503,279.029,516.017,279.514,515.419,279.514z"/>
													<path id="XMLID_40792_" fill="#D6D6D6" d="M507.1,283.588h-11.765c-0.599,0-1.084-0.485-1.084-1.084l0,0
														c0-0.599,0.485-1.084,1.084-1.084H507.1c0.599,0,1.084,0.485,1.084,1.084l0,0
														C508.184,283.103,507.699,283.588,507.1,283.588z"/>
												</g>
											</g>
											<g id="XMLID_40786_">
												<g id="XMLID_40787_">
													<path id="XMLID_40789_" fill="#D6D6D6" d="M515.419,293.094h-20.083c-0.599,0-1.084-0.485-1.084-1.084l0,0
														c0-0.599,0.485-1.084,1.084-1.084h20.083c0.599,0,1.084,0.485,1.084,1.084l0,0
														C516.503,292.609,516.017,293.094,515.419,293.094z"/>
													<path id="XMLID_40788_" fill="#D6D6D6" d="M507.1,297.168h-11.765c-0.599,0-1.084-0.485-1.084-1.084v-0.001
														c0-0.599,0.485-1.084,1.084-1.084H507.1c0.599,0,1.084,0.485,1.084,1.084v0.001
														C508.184,296.683,507.699,297.168,507.1,297.168z"/>
												</g>
											</g>
											<g id="XMLID_40782_">
												<g id="XMLID_40783_">
													<path id="XMLID_40785_" fill="#D6D6D6" d="M515.419,306.674h-20.083c-0.599,0-1.084-0.485-1.084-1.084l0,0
														c0-0.599,0.485-1.084,1.084-1.084h20.083c0.599,0,1.084,0.485,1.084,1.084l0,0
														C516.503,306.188,516.017,306.674,515.419,306.674z"/>
													<path id="XMLID_40784_" fill="#D6D6D6" d="M507.1,310.748h-11.765c-0.599,0-1.084-0.485-1.084-1.084l0,0
														c0-0.599,0.485-1.084,1.084-1.084H507.1c0.599,0,1.084,0.485,1.084,1.084l0,0
														C508.184,310.262,507.699,310.748,507.1,310.748z"/>
												</g>
											</g>
											<g id="XMLID_40778_">
												<g id="XMLID_40779_">
													<path id="XMLID_40781_" fill="#D6D6D6" d="M515.419,320.254h-20.083c-0.599,0-1.084-0.485-1.084-1.084v-0.001
														c0-0.599,0.485-1.084,1.084-1.084h20.083c0.599,0,1.084,0.485,1.084,1.084v0.001
														C516.503,319.769,516.017,320.254,515.419,320.254z"/>
													<path id="XMLID_40780_" fill="#D6D6D6" d="M507.1,324.328h-11.765c-0.599,0-1.084-0.485-1.084-1.084v-0.001
														c0-0.599,0.485-1.084,1.084-1.084H507.1c0.599,0,1.084,0.485,1.084,1.084v0.001
														C508.184,323.843,507.699,324.328,507.1,324.328z"/>
												</g>
											</g>
											<g id="XMLID_40774_">
												<g id="XMLID_40775_">
													<path id="XMLID_40777_" fill="#D6D6D6" d="M515.419,333.834h-20.083c-0.599,0-1.084-0.485-1.084-1.084v-0.001
														c0-0.599,0.485-1.084,1.084-1.084h20.083c0.599,0,1.084,0.485,1.084,1.084v0.001
														C516.503,333.349,516.017,333.834,515.419,333.834z"/>
													<path id="XMLID_40776_" fill="#D6D6D6" d="M507.1,337.908h-11.765c-0.599,0-1.084-0.485-1.084-1.084l0,0
														c0-0.599,0.485-1.084,1.084-1.084H507.1c0.599,0,1.084,0.485,1.084,1.084l0,0
														C508.184,337.423,507.699,337.908,507.1,337.908z"/>
												</g>
											</g>
											<g id="XMLID_40770_">
												<g id="XMLID_40771_">
													<path id="XMLID_40773_" fill="#D6D6D6" d="M515.419,347.414h-20.083c-0.599,0-1.084-0.485-1.084-1.084l0,0
														c0-0.599,0.485-1.084,1.084-1.084h20.083c0.599,0,1.084,0.485,1.084,1.084l0,0
														C516.503,346.928,516.017,347.414,515.419,347.414z"/>
													<path id="XMLID_40772_" fill="#D6D6D6" d="M507.1,351.488h-11.765c-0.599,0-1.084-0.485-1.084-1.084l0,0
														c0-0.599,0.485-1.084,1.084-1.084H507.1c0.599,0,1.084,0.485,1.084,1.084l0,0
														C508.184,351.003,507.699,351.488,507.1,351.488z"/>
												</g>
											</g>
											<g id="XMLID_40766_">
												<g id="XMLID_40767_">
													<path id="XMLID_40769_" fill="#D6D6D6" d="M515.419,360.994h-20.083c-0.599,0-1.084-0.485-1.084-1.084l0,0
														c0-0.599,0.485-1.084,1.084-1.084h20.083c0.599,0,1.084,0.485,1.084,1.084l0,0
														C516.503,360.508,516.017,360.994,515.419,360.994z"/>
													<path id="XMLID_40768_" fill="#D6D6D6" d="M507.1,365.068h-11.765c-0.599,0-1.084-0.485-1.084-1.084l0,0
														c0-0.599,0.485-1.084,1.084-1.084H507.1c0.599,0,1.084,0.485,1.084,1.084l0,0
														C508.184,364.582,507.699,365.068,507.1,365.068z"/>
												</g>
											</g>
										</g>
									</g>
								</g>
							</g>
						</g>
						<g id="XMLID_40743_">
							<g>
								<defs>
									<rect id="SVGID_5_" x="287.984" y="277.583" width="45.072" height="45.071"/>
								</defs>
								<clipPath id="SVGID_6_">
									<use xlink:href="#SVGID_5_"  overflow="visible"/>
								</clipPath>
								<g id="XMLID_40745_" clip-path="url(#SVGID_6_)">
									<g id="XMLID_40746_">
										<g id="XMLID_40747_">
											<g id="XMLID_40748_">
												<g id="XMLID_40753_">
													<path id="XMLID_40760_" fill="#FFF3DD" d="M308.584,300.509l-3.84-2.663l-2.168-2.539l-0.574-3.204l2.062-5.141
														l2.476-1.811l3.98-1.053c0,0,5.186,0.991,5.372,1.177s2.394,3.468,2.394,3.716c0,0.248,0.331,4.583,0.208,4.831
														c-0.124,0.248-1.523,3.865-1.647,4.051s-3.493,2.266-3.741,2.328C312.857,300.261,308.584,300.509,308.584,300.509z"/>
													<path id="XMLID_40757_" opacity="0.5" fill="#D1D3D4" enable-background="new    " d="M310.52,300.061L310.52,300.061
														c4.388,0,7.958-3.57,7.958-7.958s-3.57-7.958-7.958-7.958"/>
													<path id="XMLID_40754_" d="M310.52,283.041c-4.996,0-9.061,4.065-9.061,9.061s4.065,9.061,9.061,9.061
														s9.061-4.065,9.061-9.061S315.517,283.041,310.52,283.041z M318.134,292.103c0,4.198-3.415,7.613-7.614,7.613
														s-7.614-3.415-7.614-7.613s3.415-7.614,7.614-7.614S318.134,287.904,318.134,292.103z"/>
												</g>
												<g id="XMLID_40749_">
													<polygon id="XMLID_40752_" fill="#7D9BCC" points="293.562,324.003 327.627,324.003 326.704,319.027 324.432,314.525 
														319.675,309.98 315.85,308.405 309.448,307.101 302.691,309.235 297.83,313.266 294.866,318.719 													"/>
													<polygon id="XMLID_40751_" opacity="0.5" fill="#D1D3D4" enable-background="new    " points="310.52,307.319 
														315.173,307.876 319.844,310.233 324.095,313.936 326.704,318.775 327.112,323.973 310.52,323.973 													"/>
													<path id="XMLID_40750_" d="M310.52,306.386c-9.593,0-17.399,7.805-17.399,17.399c0,0.399,0.325,0.724,0.724,0.724
														s0.724-0.325,0.724-0.724c0-8.796,7.155-15.951,15.951-15.951s15.951,7.155,15.951,15.951
														c0,0.399,0.325,0.724,0.724,0.724s0.723-0.325,0.723-0.724C327.918,314.191,320.114,306.386,310.52,306.386z"/>
												</g>
											</g>
										</g>
									</g>
								</g>
							</g>
						</g>
					</g>
					<g id="XMLID_40703_">
						<rect id="XMLID_40704_" x="338.786" y="353.439" fill="#B7CCEA" width="14.01" height="14.009"/>
					</g>
					<g id="XMLID_40684_">
						<g>
							<defs>
								<rect id="SVGID_7_" x="338.786" y="353.439" width="14.01" height="14.01"/>
							</defs>
							<clipPath id="SVGID_8_">
								<use xlink:href="#SVGID_7_"  overflow="visible"/>
							</clipPath>
							<g id="XMLID_40686_" clip-path="url(#SVGID_8_)">
								<g id="XMLID_40687_">
									<g id="XMLID_40688_">
										<g id="XMLID_40689_">
											<g id="XMLID_40698_">
												<path id="XMLID_40702_" fill="#F9F8F7" d="M345.19,360.566l-1.194-0.828l-0.674-0.789l-0.179-0.996l0.641-1.598
													l0.77-0.563l1.237-0.327c0,0,1.612,0.308,1.67,0.366c0.058,0.058,0.744,1.078,0.744,1.155s0.103,1.425,0.065,1.502
													c-0.039,0.077-0.473,1.201-0.512,1.259s-1.086,0.704-1.163,0.724C346.518,360.489,345.19,360.566,345.19,360.566z"/>
												<path id="XMLID_40699_" opacity="0.5" fill="#D1D3D4" enable-background="new    " d="M345.791,360.426L345.791,360.426
													c1.364,0,2.474-1.11,2.474-2.474s-1.11-2.474-2.474-2.474"/>
											</g>
											<g id="XMLID_40690_">
												<polygon id="XMLID_40697_" fill="#F9F8F7" points="340.52,367.868 351.109,367.868 350.822,366.322 350.116,364.922 
													348.637,363.51 347.448,363.02 345.458,362.615 343.358,363.278 341.847,364.531 340.925,366.226 												"/>
												<polygon id="XMLID_40696_" opacity="0.5" fill="#D1D3D4" enable-background="new    " points="345.791,362.683 
													347.238,362.856 348.69,363.588 350.011,364.739 350.822,366.243 350.949,367.859 345.791,367.859 												"/>
												<g id="XMLID_40691_">
													<path id="XMLID_40693_" fill="#EFECEA" d="M345.791,360.769c1.553,0,2.817-1.263,2.817-2.817s-1.264-2.817-2.817-2.817
														s-2.817,1.263-2.817,2.817S344.238,360.769,345.791,360.769z M343.425,357.952c0-1.305,1.061-2.367,2.366-2.367
														s2.366,1.062,2.366,2.367s-1.061,2.367-2.366,2.367S343.425,359.257,343.425,357.952z"/>
													<path id="XMLID_40692_" fill="#EFECEA" d="M345.791,362.392c-2.982,0-5.409,2.426-5.409,5.408
														c0,0.124,0.101,0.225,0.226,0.225c0.124,0,0.225-0.101,0.225-0.225c0-2.734,2.224-4.958,4.958-4.958
														s4.958,2.224,4.958,4.958c0,0.124,0.101,0.225,0.225,0.225s0.225-0.101,0.225-0.225
														C351.2,364.819,348.774,362.392,345.791,362.392z"/>
												</g>
											</g>
										</g>
									</g>
								</g>
							</g>
						</g>
					</g>
					<g id="XMLID_40661_">
						<g id="XMLID_40682_">
							<rect id="XMLID_40683_" x="338.786" y="353.439" fill="#B7CCEA" width="14.01" height="14.009"/>
						</g>
						<g id="XMLID_40662_">
							<g>
								<defs>
									<rect id="SVGID_9_" x="338.786" y="353.439" width="14.01" height="14.01"/>
								</defs>
								<clipPath id="SVGID_10_">
									<use xlink:href="#SVGID_9_"  overflow="visible"/>
								</clipPath>
								<g id="XMLID_40664_" clip-path="url(#SVGID_10_)">
									<g id="XMLID_40665_">
										<g id="XMLID_40666_">
											<g id="XMLID_40668_">
												<g id="XMLID_40677_">
													<path id="XMLID_40681_" fill="#F9F8F7" d="M345.19,360.566l-1.194-0.828l-0.674-0.789l-0.179-0.996l0.641-1.598
														l0.77-0.563l1.237-0.327c0,0,1.612,0.308,1.67,0.366c0.058,0.058,0.744,1.078,0.744,1.155s0.103,1.425,0.065,1.502
														c-0.039,0.077-0.473,1.201-0.512,1.259s-1.086,0.704-1.163,0.724C346.518,360.489,345.19,360.566,345.19,360.566z"/>
													<path id="XMLID_40678_" opacity="0.5" fill="#D1D3D4" enable-background="new    " d="M345.791,360.426
														L345.791,360.426c1.364,0,2.474-1.11,2.474-2.474s-1.11-2.474-2.474-2.474"/>
												</g>
												<g id="XMLID_40669_">
													<polygon id="XMLID_40676_" fill="#F9F8F7" points="340.52,367.868 351.109,367.868 350.822,366.322 350.116,364.922 
														348.637,363.51 347.448,363.02 345.458,362.615 343.358,363.278 341.847,364.531 340.925,366.226 													"/>
													<polygon id="XMLID_40675_" opacity="0.5" fill="#D1D3D4" enable-background="new    " points="345.791,362.683 
														347.238,362.856 348.69,363.588 350.011,364.739 350.822,366.243 350.949,367.859 345.791,367.859 													"/>
													<g id="XMLID_40670_">
														<path id="XMLID_40672_" fill="#EFECEA" d="M345.791,360.769c1.553,0,2.817-1.263,2.817-2.817
															s-1.264-2.817-2.817-2.817s-2.817,1.263-2.817,2.817S344.238,360.769,345.791,360.769z M343.425,357.952
															c0-1.305,1.061-2.367,2.366-2.367s2.366,1.062,2.366,2.367s-1.061,2.367-2.366,2.367S343.425,359.257,343.425,357.952
															z"/>
														<path id="XMLID_40671_" fill="#EFECEA" d="M345.791,362.392c-2.982,0-5.409,2.426-5.409,5.408
															c0,0.124,0.101,0.225,0.226,0.225c0.124,0,0.225-0.101,0.225-0.225c0-2.734,2.224-4.958,4.958-4.958
															s4.958,2.224,4.958,4.958c0,0.124,0.101,0.225,0.225,0.225s0.225-0.101,0.225-0.225
															C351.2,364.819,348.774,362.392,345.791,362.392z"/>
													</g>
												</g>
											</g>
										</g>
									</g>
								</g>
							</g>
						</g>
					</g>
					<g id="XMLID_40639_">
						<g id="XMLID_40659_">
							<rect id="XMLID_40660_" x="338.786" y="329.784" fill="#B7CCEA" width="14.01" height="14.009"/>
						</g>
						<g id="XMLID_40640_">
							<g>
								<defs>
									<rect id="SVGID_11_" x="338.786" y="329.784" width="14.01" height="14.01"/>
								</defs>
								<clipPath id="SVGID_12_">
									<use xlink:href="#SVGID_11_"  overflow="visible"/>
								</clipPath>
								<g id="XMLID_40642_" clip-path="url(#SVGID_12_)">
									<g id="XMLID_40643_">
										<g id="XMLID_40644_">
											<g id="XMLID_40645_">
												<g id="XMLID_40654_">
													<path id="XMLID_40658_" fill="#F9F8F7" d="M345.19,336.91l-1.194-0.828l-0.674-0.789l-0.179-0.996l0.641-1.598
														l0.77-0.563l1.237-0.327c0,0,1.612,0.308,1.67,0.366c0.058,0.058,0.744,1.078,0.744,1.155s0.103,1.425,0.065,1.502
														c-0.039,0.077-0.473,1.201-0.512,1.259s-1.086,0.704-1.163,0.724C346.518,336.833,345.19,336.91,345.19,336.91z"/>
													<path id="XMLID_40655_" opacity="0.5" fill="#D1D3D4" enable-background="new    " d="M345.791,336.771
														L345.791,336.771c1.364,0,2.474-1.11,2.474-2.474s-1.11-2.474-2.474-2.474"/>
												</g>
												<g id="XMLID_40646_">
													<polygon id="XMLID_40653_" fill="#F9F8F7" points="340.52,344.213 351.109,344.213 350.822,342.667 350.116,341.267 
														348.637,339.854 347.448,339.365 345.458,338.959 343.358,339.623 341.847,340.876 340.925,342.571 													"/>
													<polygon id="XMLID_40652_" opacity="0.5" fill="#D1D3D4" enable-background="new    " points="345.791,339.027 
														347.238,339.2 348.69,339.933 350.011,341.084 350.822,342.588 350.949,344.204 345.791,344.204 													"/>
													<g id="XMLID_40647_">
														<path id="XMLID_40649_" fill="#EFECEA" d="M345.791,337.114c1.553,0,2.817-1.263,2.817-2.817
															s-1.264-2.817-2.817-2.817s-2.817,1.263-2.817,2.817S344.238,337.114,345.791,337.114z M343.425,334.297
															c0-1.305,1.061-2.367,2.366-2.367s2.366,1.062,2.366,2.367s-1.061,2.367-2.366,2.367S343.425,335.602,343.425,334.297
															z"/>
														<path id="XMLID_40648_" fill="#EFECEA" d="M345.791,338.737c-2.982,0-5.409,2.426-5.409,5.408
															c0,0.124,0.101,0.225,0.226,0.225c0.124,0,0.225-0.101,0.225-0.225c0-2.734,2.224-4.958,4.958-4.958
															s4.958,2.225,4.958,4.958c0,0.124,0.101,0.225,0.225,0.225s0.225-0.101,0.225-0.225
															C351.2,341.163,348.774,338.737,345.791,338.737z"/>
													</g>
												</g>
											</g>
										</g>
									</g>
								</g>
							</g>
						</g>
					</g>
					<g id="XMLID_40617_">
						<g id="XMLID_40637_">
							<rect id="XMLID_40638_" x="484.964" y="358.291" fill="#B7CCEA" width="7.134" height="7.133"/>
						</g>
						<g id="XMLID_40618_">
							<g>
								<defs>
									<rect id="SVGID_13_" x="484.964" y="358.291" width="7.134" height="7.133"/>
								</defs>
								<clipPath id="SVGID_14_">
									<use xlink:href="#SVGID_13_"  overflow="visible"/>
								</clipPath>
								<g id="XMLID_40620_" clip-path="url(#SVGID_14_)">
									<g id="XMLID_40621_">
										<g id="XMLID_40622_">
											<g id="XMLID_40623_">
												<g id="XMLID_40632_">
													<path id="XMLID_40636_" fill="#F9F8F7" d="M488.225,361.92l-0.608-0.421l-0.343-0.402l-0.091-0.507l0.326-0.814
														l0.392-0.287l0.63-0.167c0,0,0.821,0.157,0.85,0.186s0.379,0.549,0.379,0.588s0.052,0.725,0.033,0.765
														c-0.02,0.039-0.241,0.612-0.261,0.641s-0.553,0.359-0.592,0.368C488.901,361.881,488.225,361.92,488.225,361.92z"/>
													<path id="XMLID_40633_" opacity="0.5" fill="#D1D3D4" enable-background="new    " d="M488.531,361.849
														L488.531,361.849c0.695,0,1.26-0.565,1.26-1.26s-0.565-1.26-1.26-1.26"/>
												</g>
												<g id="XMLID_40624_">
													<polygon id="XMLID_40631_" fill="#F9F8F7" points="485.847,365.638 491.239,365.638 491.093,364.851 490.733,364.138 
														489.98,363.419 489.375,363.17 488.362,362.963 487.292,363.301 486.523,363.939 486.054,364.802 													"/>
													<polygon id="XMLID_40630_" opacity="0.5" fill="#D1D3D4" enable-background="new    " points="488.531,362.998 
														489.268,363.086 490.007,363.459 490.68,364.045 491.093,364.811 491.157,365.634 488.531,365.634 													"/>
													<g id="XMLID_40625_">
														<path id="XMLID_40627_" fill="#EFECEA" d="M488.531,362.023c0.791,0,1.434-0.643,1.434-1.434
															s-0.644-1.434-1.434-1.434s-1.434,0.643-1.434,1.434S487.74,362.023,488.531,362.023z M487.326,360.589
															c0-0.664,0.54-1.205,1.205-1.205s1.205,0.541,1.205,1.205s-0.54,1.205-1.205,1.205S487.326,361.254,487.326,360.589z"
															/>
														<path id="XMLID_40626_" fill="#EFECEA" d="M488.531,362.85c-1.518,0-2.754,1.235-2.754,2.754
															c0,0.063,0.052,0.115,0.115,0.115s0.115-0.051,0.115-0.115c0-1.392,1.132-2.525,2.524-2.525s2.525,1.133,2.525,2.525
															c0,0.063,0.052,0.115,0.115,0.115s0.115-0.051,0.115-0.115C491.285,364.085,490.05,362.85,488.531,362.85z"/>
													</g>
												</g>
											</g>
										</g>
									</g>
								</g>
							</g>
						</g>
					</g>
					<g id="XMLID_40595_">
						<g id="XMLID_40615_">
							<rect id="XMLID_40616_" x="484.964" y="344.948" fill="#B7CCEA" width="7.134" height="7.133"/>
						</g>
						<g id="XMLID_40596_">
							<g>
								<defs>
									<rect id="SVGID_15_" x="484.964" y="344.948" width="7.134" height="7.133"/>
								</defs>
								<clipPath id="SVGID_16_">
									<use xlink:href="#SVGID_15_"  overflow="visible"/>
								</clipPath>
								<g id="XMLID_40598_" clip-path="url(#SVGID_16_)">
									<g id="XMLID_40599_">
										<g id="XMLID_40600_">
											<g id="XMLID_40601_">
												<g id="XMLID_40610_">
													<path id="XMLID_40614_" fill="#F9F8F7" d="M488.225,348.577l-0.608-0.422l-0.343-0.402l-0.091-0.507l0.326-0.814
														l0.392-0.287l0.63-0.167c0,0,0.821,0.157,0.85,0.186s0.379,0.549,0.379,0.588s0.052,0.725,0.033,0.765
														c-0.02,0.039-0.241,0.612-0.261,0.641s-0.553,0.359-0.592,0.368C488.901,348.538,488.225,348.577,488.225,348.577z"/>
													<path id="XMLID_40611_" opacity="0.5" fill="#D1D3D4" enable-background="new    " d="M488.531,348.506
														L488.531,348.506c0.695,0,1.26-0.565,1.26-1.26s-0.565-1.26-1.26-1.26"/>
												</g>
												<g id="XMLID_40602_">
													<polygon id="XMLID_40609_" fill="#F9F8F7" points="485.847,352.295 491.239,352.295 491.093,351.508 490.733,350.795 
														489.98,350.076 489.375,349.826 488.362,349.62 487.292,349.958 486.523,350.596 486.054,351.459 													"/>
													<polygon id="XMLID_40608_" opacity="0.5" fill="#D1D3D4" enable-background="new    " points="488.531,349.655 
														489.268,349.743 490.007,350.116 490.68,350.702 491.093,351.468 491.157,352.29 488.531,352.29 													"/>
													<g id="XMLID_40603_">
														<path id="XMLID_40605_" fill="#EFECEA" d="M488.531,348.68c0.791,0,1.434-0.643,1.434-1.434s-0.644-1.434-1.434-1.434
															s-1.434,0.643-1.434,1.434C487.097,348.037,487.74,348.68,488.531,348.68z M487.326,347.246
															c0-0.664,0.54-1.205,1.205-1.205s1.205,0.541,1.205,1.205s-0.54,1.205-1.205,1.205S487.326,347.911,487.326,347.246z"
															/>
														<path id="XMLID_40604_" fill="#EFECEA" d="M488.531,349.507c-1.518,0-2.754,1.235-2.754,2.754
															c0,0.063,0.052,0.115,0.115,0.115s0.115-0.051,0.115-0.115c0-1.392,1.132-2.525,2.524-2.525s2.525,1.133,2.525,2.525
															c0,0.063,0.052,0.115,0.115,0.115s0.115-0.051,0.115-0.115C491.285,350.742,490.05,349.507,488.531,349.507z"/>
													</g>
												</g>
											</g>
										</g>
									</g>
								</g>
							</g>
						</g>
					</g>
					<g id="XMLID_40573_">
						<g id="XMLID_40593_">
							<rect id="XMLID_40594_" x="484.964" y="331.432" fill="#B7CCEA" width="7.134" height="7.133"/>
						</g>
						<g id="XMLID_40574_">
							<g>
								<defs>
									<rect id="SVGID_17_" x="484.964" y="331.432" width="7.134" height="7.133"/>
								</defs>
								<clipPath id="SVGID_18_">
									<use xlink:href="#SVGID_17_"  overflow="visible"/>
								</clipPath>
								<g id="XMLID_40576_" clip-path="url(#SVGID_18_)">
									<g id="XMLID_40577_">
										<g id="XMLID_40578_">
											<g id="XMLID_40579_">
												<g id="XMLID_40588_">
													<path id="XMLID_40592_" fill="#F9F8F7" d="M488.225,335.061l-0.608-0.421l-0.343-0.402l-0.091-0.507l0.326-0.814
														l0.392-0.287l0.63-0.167c0,0,0.821,0.157,0.85,0.186s0.379,0.549,0.379,0.588s0.052,0.725,0.033,0.765
														c-0.02,0.039-0.241,0.612-0.261,0.641s-0.553,0.359-0.592,0.368C488.901,335.021,488.225,335.061,488.225,335.061z"/>
													<path id="XMLID_40589_" opacity="0.5" fill="#D1D3D4" enable-background="new    " d="M488.531,334.99L488.531,334.99
														c0.695,0,1.26-0.565,1.26-1.26s-0.565-1.26-1.26-1.26"/>
												</g>
												<g id="XMLID_40580_">
													<polygon id="XMLID_40587_" fill="#F9F8F7" points="485.847,338.779 491.239,338.779 491.093,337.992 490.733,337.279 
														489.98,336.56 489.375,336.31 488.362,336.104 487.292,336.442 486.523,337.08 486.054,337.943 													"/>
													<polygon id="XMLID_40586_" opacity="0.5" fill="#D1D3D4" enable-background="new    " points="488.531,336.138 
														489.268,336.227 490.007,336.6 490.68,337.186 491.093,337.952 491.157,338.774 488.531,338.774 													"/>
													<g id="XMLID_40581_">
														<path id="XMLID_40583_" fill="#EFECEA" d="M488.531,335.164c0.791,0,1.434-0.643,1.434-1.434
															s-0.644-1.434-1.434-1.434s-1.434,0.643-1.434,1.434S487.74,335.164,488.531,335.164z M487.326,333.73
															c0-0.664,0.54-1.205,1.205-1.205s1.205,0.541,1.205,1.205s-0.54,1.205-1.205,1.205S487.326,334.395,487.326,333.73z"
															/>
														<path id="XMLID_40582_" fill="#EFECEA" d="M488.531,335.991c-1.518,0-2.754,1.235-2.754,2.754
															c0,0.063,0.052,0.115,0.115,0.115s0.115-0.051,0.115-0.115c0-1.392,1.132-2.525,2.524-2.525s2.525,1.133,2.525,2.525
															c0,0.063,0.052,0.115,0.115,0.115s0.115-0.051,0.115-0.115C491.285,337.226,490.05,335.991,488.531,335.991z"/>
													</g>
												</g>
											</g>
										</g>
									</g>
								</g>
							</g>
						</g>
					</g>
					<g id="XMLID_40168_">
						<g id="XMLID_40571_">
							<rect id="XMLID_40572_" x="484.964" y="317.788" fill="#B7CCEA" width="7.134" height="7.133"/>
						</g>
						<g id="XMLID_40169_">
							<g>
								<defs>
									<rect id="SVGID_19_" x="484.964" y="317.788" width="7.134" height="7.133"/>
								</defs>
								<clipPath id="SVGID_20_">
									<use xlink:href="#SVGID_19_"  overflow="visible"/>
								</clipPath>
								<g id="XMLID_40171_" clip-path="url(#SVGID_20_)">
									<g id="XMLID_40555_">
										<g id="XMLID_40556_">
											<g id="XMLID_40557_">
												<g id="XMLID_40566_">
													<path id="XMLID_40570_" fill="#F9F8F7" d="M488.225,321.417l-0.608-0.421l-0.343-0.402l-0.091-0.507l0.326-0.814
														l0.392-0.287l0.63-0.167c0,0,0.821,0.157,0.85,0.186s0.379,0.549,0.379,0.588s0.052,0.725,0.033,0.765
														c-0.02,0.039-0.241,0.612-0.261,0.641s-0.553,0.359-0.592,0.368C488.901,321.378,488.225,321.417,488.225,321.417z"/>
													<path id="XMLID_40567_" opacity="0.5" fill="#D1D3D4" enable-background="new    " d="M488.531,321.346
														L488.531,321.346c0.695,0,1.26-0.565,1.26-1.26s-0.565-1.26-1.26-1.26"/>
												</g>
												<g id="XMLID_40558_">
													<polygon id="XMLID_40565_" fill="#F9F8F7" points="485.847,325.135 491.239,325.135 491.093,324.348 490.733,323.635 
														489.98,322.916 489.375,322.667 488.362,322.46 487.292,322.798 486.523,323.436 486.054,324.299 													"/>
													<polygon id="XMLID_40564_" opacity="0.5" fill="#D1D3D4" enable-background="new    " points="488.531,322.495 
														489.268,322.583 490.007,322.956 490.68,323.542 491.093,324.308 491.157,325.13 488.531,325.13 													"/>
													<g id="XMLID_40559_">
														<path id="XMLID_40561_" fill="#EFECEA" d="M488.531,321.52c0.791,0,1.434-0.643,1.434-1.434s-0.644-1.434-1.434-1.434
															s-1.434,0.643-1.434,1.434S487.74,321.52,488.531,321.52z M487.326,320.086c0-0.664,0.54-1.205,1.205-1.205
															s1.205,0.541,1.205,1.205s-0.54,1.205-1.205,1.205S487.326,320.751,487.326,320.086z"/>
														<path id="XMLID_40560_" fill="#EFECEA" d="M488.531,322.347c-1.518,0-2.754,1.235-2.754,2.754
															c0,0.063,0.052,0.115,0.115,0.115s0.115-0.051,0.115-0.115c0-1.392,1.132-2.525,2.524-2.525s2.525,1.133,2.525,2.525
															c0,0.063,0.052,0.115,0.115,0.115s0.115-0.051,0.115-0.115C491.285,323.582,490.05,322.347,488.531,322.347z"/>
													</g>
												</g>
											</g>
										</g>
									</g>
								</g>
							</g>
						</g>
					</g>
					<g id="XMLID_40146_">
						<g id="XMLID_40166_">
							<rect id="XMLID_40167_" x="484.964" y="304.209" fill="#B7CCEA" width="7.134" height="7.133"/>
						</g>
						<g id="XMLID_40147_">
							<g>
								<defs>
									<rect id="SVGID_21_" x="484.964" y="304.209" width="7.134" height="7.133"/>
								</defs>
								<clipPath id="SVGID_22_">
									<use xlink:href="#SVGID_21_"  overflow="visible"/>
								</clipPath>
								<g id="XMLID_40149_" clip-path="url(#SVGID_22_)">
									<g id="XMLID_40150_">
										<g id="XMLID_40151_">
											<g id="XMLID_40152_">
												<g id="XMLID_40161_">
													<path id="XMLID_40165_" fill="#F9F8F7" d="M488.225,307.837l-0.608-0.421l-0.343-0.402l-0.091-0.507l0.326-0.814
														l0.392-0.287l0.63-0.167c0,0,0.821,0.157,0.85,0.186s0.379,0.549,0.379,0.588s0.052,0.725,0.033,0.765
														c-0.02,0.039-0.241,0.612-0.261,0.641s-0.553,0.359-0.592,0.368C488.901,307.798,488.225,307.837,488.225,307.837z"/>
													<path id="XMLID_40162_" opacity="0.5" fill="#D1D3D4" enable-background="new    " d="M488.531,307.766
														L488.531,307.766c0.695,0,1.26-0.565,1.26-1.26s-0.565-1.26-1.26-1.26"/>
												</g>
												<g id="XMLID_40153_">
													<polygon id="XMLID_40160_" fill="#F9F8F7" points="485.847,311.555 491.239,311.555 491.093,310.768 490.733,310.055 
														489.98,309.336 489.375,309.087 488.362,308.88 487.292,309.218 486.523,309.856 486.054,310.719 													"/>
													<polygon id="XMLID_40159_" opacity="0.5" fill="#D1D3D4" enable-background="new    " points="488.531,308.915 
														489.268,309.003 490.007,309.376 490.68,309.962 491.093,310.728 491.157,311.551 488.531,311.551 													"/>
													<g id="XMLID_40154_">
														<path id="XMLID_40156_" fill="#EFECEA" d="M488.531,307.941c0.791,0,1.434-0.643,1.434-1.434
															s-0.644-1.434-1.434-1.434s-1.434,0.643-1.434,1.434S487.74,307.941,488.531,307.941z M487.326,306.507
															c0-0.664,0.54-1.205,1.205-1.205s1.205,0.541,1.205,1.205s-0.54,1.205-1.205,1.205S487.326,307.171,487.326,306.507z"
															/>
														<path id="XMLID_40155_" fill="#EFECEA" d="M488.531,308.767c-1.518,0-2.754,1.235-2.754,2.754
															c0,0.063,0.052,0.115,0.115,0.115s0.115-0.051,0.115-0.115c0-1.392,1.132-2.525,2.524-2.525s2.525,1.133,2.525,2.525
															c0,0.063,0.052,0.115,0.115,0.115s0.115-0.051,0.115-0.115C491.285,310.003,490.05,308.767,488.531,308.767z"/>
													</g>
												</g>
											</g>
										</g>
									</g>
								</g>
							</g>
						</g>
					</g>
					<g id="XMLID_40124_">
						<g id="XMLID_40144_">
							<rect id="XMLID_40145_" x="484.964" y="290.629" fill="#B7CCEA" width="7.134" height="7.133"/>
						</g>
						<g id="XMLID_40125_">
							<g>
								<defs>
									<rect id="SVGID_23_" x="484.964" y="290.629" width="7.134" height="7.133"/>
								</defs>
								<clipPath id="SVGID_24_">
									<use xlink:href="#SVGID_23_"  overflow="visible"/>
								</clipPath>
								<g id="XMLID_40127_" clip-path="url(#SVGID_24_)">
									<g id="XMLID_40128_">
										<g id="XMLID_40129_">
											<g id="XMLID_40130_">
												<g id="XMLID_40139_">
													<path id="XMLID_40143_" fill="#F9F8F7" d="M488.225,294.257l-0.608-0.421l-0.343-0.402l-0.091-0.507l0.326-0.814
														l0.392-0.287l0.63-0.167c0,0,0.821,0.157,0.85,0.186s0.379,0.549,0.379,0.588s0.052,0.725,0.033,0.765
														c-0.02,0.039-0.241,0.612-0.261,0.641s-0.553,0.359-0.592,0.368C488.901,294.218,488.225,294.257,488.225,294.257z"/>
													<path id="XMLID_40140_" opacity="0.5" fill="#D1D3D4" enable-background="new    " d="M488.531,294.186
														L488.531,294.186c0.695,0,1.26-0.565,1.26-1.26s-0.565-1.26-1.26-1.26"/>
												</g>
												<g id="XMLID_40131_">
													<polygon id="XMLID_40138_" fill="#F9F8F7" points="485.847,297.976 491.239,297.976 491.093,297.188 490.733,296.476 
														489.98,295.756 489.375,295.507 488.362,295.301 487.292,295.638 486.523,296.276 486.054,297.139 													"/>
													<polygon id="XMLID_40137_" opacity="0.5" fill="#D1D3D4" enable-background="new    " points="488.531,295.335 
														489.268,295.423 490.007,295.796 490.68,296.382 491.093,297.148 491.157,297.971 488.531,297.971 													"/>
													<g id="XMLID_40132_">
														<path id="XMLID_40134_" fill="#EFECEA" d="M488.531,294.361c0.791,0,1.434-0.643,1.434-1.434
															s-0.644-1.434-1.434-1.434s-1.434,0.643-1.434,1.434S487.74,294.361,488.531,294.361z M487.326,292.927
															c0-0.664,0.54-1.205,1.205-1.205s1.205,0.541,1.205,1.205s-0.54,1.205-1.205,1.205S487.326,293.591,487.326,292.927z"
															/>
														<path id="XMLID_40133_" fill="#EFECEA" d="M488.531,295.188c-1.518,0-2.754,1.235-2.754,2.754
															c0,0.063,0.052,0.115,0.115,0.115s0.115-0.051,0.115-0.115c0-1.392,1.132-2.525,2.524-2.525s2.525,1.133,2.525,2.525
															c0,0.063,0.052,0.115,0.115,0.115s0.115-0.051,0.115-0.115C491.285,296.423,490.05,295.188,488.531,295.188z"/>
													</g>
												</g>
											</g>
										</g>
									</g>
								</g>
							</g>
						</g>
					</g>
					<g id="XMLID_40102_">
						<g id="XMLID_40122_">
							<rect id="XMLID_40123_" x="484.964" y="277.049" fill="#B7CCEA" width="7.134" height="7.133"/>
						</g>
						<g id="XMLID_40103_">
							<g>
								<defs>
									<rect id="SVGID_25_" x="484.964" y="277.049" width="7.134" height="7.133"/>
								</defs>
								<clipPath id="SVGID_26_">
									<use xlink:href="#SVGID_25_"  overflow="visible"/>
								</clipPath>
								<g id="XMLID_40105_" clip-path="url(#SVGID_26_)">
									<g id="XMLID_40106_">
										<g id="XMLID_40107_">
											<g id="XMLID_40108_">
												<g id="XMLID_40117_">
													<path id="XMLID_40121_" fill="#F9F8F7" d="M488.225,280.677l-0.608-0.421l-0.343-0.402l-0.091-0.507l0.326-0.814
														l0.392-0.287l0.63-0.167c0,0,0.821,0.157,0.85,0.186s0.379,0.549,0.379,0.588s0.052,0.725,0.033,0.765
														c-0.02,0.039-0.241,0.612-0.261,0.641s-0.553,0.359-0.592,0.368C488.901,280.638,488.225,280.677,488.225,280.677z"/>
													<path id="XMLID_40118_" opacity="0.5" fill="#D1D3D4" enable-background="new    " d="M488.531,280.606
														L488.531,280.606c0.695,0,1.26-0.565,1.26-1.26s-0.565-1.26-1.26-1.26"/>
												</g>
												<g id="XMLID_40109_">
													<polygon id="XMLID_40116_" fill="#F9F8F7" points="485.847,284.396 491.239,284.396 491.093,283.608 490.733,282.896 
														489.98,282.176 489.375,281.927 488.362,281.721 487.292,282.058 486.523,282.696 486.054,283.56 													"/>
													<polygon id="XMLID_40115_" opacity="0.5" fill="#D1D3D4" enable-background="new    " points="488.531,281.755 
														489.268,281.843 490.007,282.216 490.68,282.802 491.093,283.568 491.157,284.391 488.531,284.391 													"/>
													<g id="XMLID_40110_">
														<path id="XMLID_40112_" fill="#EFECEA" d="M488.531,280.781c0.791,0,1.434-0.643,1.434-1.434
															s-0.644-1.434-1.434-1.434s-1.434,0.643-1.434,1.434S487.74,280.781,488.531,280.781z M487.326,279.347
															c0-0.664,0.54-1.205,1.205-1.205s1.205,0.541,1.205,1.205s-0.54,1.205-1.205,1.205S487.326,280.011,487.326,279.347z"
															/>
														<path id="XMLID_40111_" fill="#EFECEA" d="M488.531,281.608c-1.518,0-2.754,1.235-2.754,2.754
															c0,0.063,0.052,0.115,0.115,0.115s0.115-0.051,0.115-0.115c0-1.392,1.132-2.525,2.524-2.525s2.525,1.133,2.525,2.525
															c0,0.063,0.052,0.115,0.115,0.115s0.115-0.051,0.115-0.115C491.285,282.843,490.05,281.608,488.531,281.608z"/>
													</g>
												</g>
											</g>
										</g>
									</g>
								</g>
							</g>
						</g>
					</g>
					<g id="XMLID_39854_">
						<g id="XMLID_40100_">
							<rect id="XMLID_40101_" x="484.964" y="263.469" fill="#B7CCEA" width="7.134" height="7.133"/>
						</g>
						<g id="XMLID_39855_">
							<g>
								<defs>
									<rect id="SVGID_27_" x="484.964" y="263.469" width="7.134" height="7.133"/>
								</defs>
								<clipPath id="SVGID_28_">
									<use xlink:href="#SVGID_27_"  overflow="visible"/>
								</clipPath>
								<g id="XMLID_39857_" clip-path="url(#SVGID_28_)">
									<g id="XMLID_39866_">
										<g id="XMLID_40077_">
											<g id="XMLID_40082_">
												<g id="XMLID_40095_">
													<path id="XMLID_40099_" fill="#F9F8F7" d="M488.225,267.098l-0.608-0.421l-0.343-0.402l-0.091-0.507l0.326-0.814
														l0.392-0.287l0.63-0.167c0,0,0.821,0.157,0.85,0.186s0.379,0.549,0.379,0.588s0.052,0.725,0.033,0.765
														c-0.02,0.039-0.241,0.612-0.261,0.641s-0.553,0.359-0.592,0.368C488.901,267.058,488.225,267.098,488.225,267.098z"/>
													<path id="XMLID_40096_" opacity="0.5" fill="#D1D3D4" enable-background="new    " d="M488.531,267.027
														L488.531,267.027c0.695,0,1.26-0.565,1.26-1.26s-0.565-1.26-1.26-1.26"/>
												</g>
												<g id="XMLID_40087_">
													<polygon id="XMLID_40094_" fill="#F9F8F7" points="485.847,270.816 491.239,270.816 491.093,270.028 490.733,269.316 
														489.98,268.596 489.375,268.347 488.362,268.141 487.292,268.479 486.523,269.117 486.054,269.98 													"/>
													<polygon id="XMLID_40093_" opacity="0.5" fill="#D1D3D4" enable-background="new    " points="488.531,268.175 
														489.268,268.263 490.007,268.636 490.68,269.223 491.093,269.988 491.157,270.811 488.531,270.811 													"/>
													<g id="XMLID_40088_">
														<path id="XMLID_40090_" fill="#EFECEA" d="M488.531,267.201c0.791,0,1.434-0.643,1.434-1.434
															s-0.644-1.434-1.434-1.434s-1.434,0.643-1.434,1.434S487.74,267.201,488.531,267.201z M487.326,265.767
															c0-0.664,0.54-1.205,1.205-1.205s1.205,0.541,1.205,1.205s-0.54,1.205-1.205,1.205S487.326,266.431,487.326,265.767z"
															/>
														<path id="XMLID_40089_" fill="#EFECEA" d="M488.531,268.028c-1.518,0-2.754,1.235-2.754,2.754
															c0,0.063,0.052,0.115,0.115,0.115s0.115-0.051,0.115-0.115c0-1.392,1.132-2.525,2.524-2.525s2.525,1.133,2.525,2.525
															c0,0.063,0.052,0.115,0.115,0.115s0.115-0.051,0.115-0.115C491.285,269.263,490.05,268.028,488.531,268.028z"/>
													</g>
												</g>
											</g>
										</g>
									</g>
								</g>
							</g>
						</g>
					</g>
				</g>
				<g id="XMLID_39810_">
					<g id="XMLID_39815_">
						<g id="XMLID_39820_">
							<g id="XMLID_39849_">
								<path id="XMLID_39850_" fill="#8FA9D3" d="M364.989,261.32c-4.769,0-8.65,3.881-8.65,8.651c0,4.769,3.881,8.651,8.65,8.651
									c4.77,0,8.651-3.881,8.651-8.651C373.64,265.201,369.759,261.32,364.989,261.32z M364.989,275.24
									c-2.906,0-5.27-2.364-5.27-5.27c0-2.906,2.364-5.27,5.27-5.27c2.906,0,5.27,2.364,5.27,5.27
									C370.259,272.876,367.895,275.24,364.989,275.24z"/>
							</g>
							<polygon id="XMLID_39822_" fill="#8FA9D3" points="355.03,305.52 374.269,286.28 393.509,305.52 395.899,303.131 
								374.269,281.501 352.639,303.131 							"/>
							<polygon id="XMLID_39821_" fill="#8FA9D3" points="389.76,289.21 392.149,291.6 397.469,286.28 407.429,296.241 
								409.819,293.85 397.469,281.501 							"/>
						</g>
					</g>
				</g>
			</g>
			<g id="XMLID_39803_">
				
					<line id="XMLID_39806_" fill="none" stroke="#000000" stroke-width="2.4" stroke-linecap="round" stroke-linejoin="round" stroke-miterlimit="10" x1="263.378" y1="231.99" x2="521.386" y2="231.99"/>
				
					<rect id="XMLID_39805_" x="263.378" y="209.386" fill="none" stroke="#000000" stroke-width="2.4" stroke-linecap="round" stroke-linejoin="round" stroke-miterlimit="10" width="258.008" height="164.377"/>
				
					<line id="XMLID_39804_" fill="none" stroke="#000000" stroke-width="2.4" stroke-linecap="round" stroke-linejoin="round" stroke-miterlimit="10" x1="476.177" y1="209.386" x2="476.177" y2="231.99"/>
			</g>
		</g>
		<g id="XMLID_6720_">
			<path id="XMLID_6721_" d="M597.328,375.251H9.672c-0.647,0-1.172-0.525-1.172-1.172l0,0c0-0.647,0.525-1.172,1.172-1.172h587.656
				c0.647,0,1.172,0.525,1.172,1.172l0,0C598.5,374.727,597.975,375.251,597.328,375.251z"/>
		</g>
		<g id="XMLID_159_">
			<rect id="XMLID_1715_" x="428.562" y="269.702" fill="#FFFFFF" width="122.175" height="104.44"/>
			<rect id="XMLID_1713_" x="428.562" y="285.597" fill="#ED1C24" width="121.302" height="5.174"/>
			<g id="XMLID_1372_">
				<rect id="XMLID_1628_" x="427.991" y="269.833" fill="#54DFFF" width="122.746" height="15.765"/>
				
					<rect id="XMLID_1593_" x="428.432" y="269.833" fill="none" stroke="#000000" stroke-width="2.4" stroke-linecap="round" stroke-linejoin="round" stroke-miterlimit="10" width="122.175" height="103.985"/>
				<g id="XMLID_1414_">
					
						<line id="XMLID_1586_" fill="none" stroke="#000000" stroke-width="2.4" stroke-linecap="round" stroke-linejoin="round" stroke-miterlimit="10" x1="428.432" y1="285.597" x2="550.607" y2="285.597"/>
					
						<line id="XMLID_1559_" fill="none" stroke="#1D1D1D" stroke-width="4" stroke-linecap="round" stroke-linejoin="round" stroke-miterlimit="10" x1="526.96" y1="277.715" x2="526.96" y2="277.715"/>
					
						<line id="XMLID_1554_" fill="none" stroke="#1D1D1D" stroke-width="4" stroke-linecap="round" stroke-linejoin="round" stroke-miterlimit="10" x1="534.842" y1="277.715" x2="534.842" y2="277.715"/>
					
						<line id="XMLID_1552_" fill="none" stroke="#1D1D1D" stroke-width="4" stroke-linecap="round" stroke-linejoin="round" stroke-miterlimit="10" x1="542.725" y1="277.715" x2="542.725" y2="277.715"/>
					
						<line id="XMLID_1547_" fill="none" stroke="#000000" stroke-width="2.4" stroke-linecap="round" stroke-linejoin="round" stroke-miterlimit="10" x1="519.078" y1="269.833" x2="519.078" y2="285.597"/>
					
						<line id="XMLID_1534_" fill="none" stroke="#000000" stroke-width="2.4" stroke-linecap="round" stroke-linejoin="round" stroke-miterlimit="10" x1="491.49" y1="305.303" x2="538.359" y2="305.303"/>
					
						<line id="XMLID_1526_" fill="none" stroke="#000000" stroke-width="2.4" stroke-linecap="round" stroke-linejoin="round" stroke-miterlimit="10" x1="491.49" y1="315.156" x2="538.359" y2="315.156"/>
					
						<line id="XMLID_1437_" fill="none" stroke="#000000" stroke-width="2.4" stroke-linecap="round" stroke-linejoin="round" stroke-miterlimit="10" x1="491.49" y1="325.008" x2="538.359" y2="325.008"/>
					
						<line id="XMLID_1435_" fill="none" stroke="#000000" stroke-width="2.4" stroke-linecap="round" stroke-linejoin="round" stroke-miterlimit="10" x1="491.49" y1="334.861" x2="538.359" y2="334.861"/>
					
						<line id="XMLID_1434_" fill="none" stroke="#000000" stroke-width="2.4" stroke-linecap="round" stroke-linejoin="round" stroke-miterlimit="10" x1="440.24" y1="344.714" x2="479.884" y2="344.714"/>
					
						<line id="XMLID_1423_" fill="none" stroke="#000000" stroke-width="2.4" stroke-linecap="round" stroke-linejoin="round" stroke-miterlimit="10" x1="440.24" y1="354.567" x2="479.884" y2="354.567"/>
				</g>
			</g>
			<g id="XMLID_1060_">
				<g id="XMLID_1077_">
					<rect id="XMLID_1369_" x="440.24" y="299.649" fill="#54DFFF" width="39.645" height="25.228"/>
					<rect id="XMLID_1356_" x="440.24" y="322.222" fill="#8DC63F" width="39.645" height="15.506"/>
					<path id="XMLID_1283_" fill="#F7941E" d="M448.922,314.776l-1.523-1.882v-3.226l1.523-1.703c0,0,3.316-0.269,3.495,0
						s1.792,2.419,1.792,2.688s0,2.509,0,2.509l-3.405,2.33L448.922,314.776z"/>
					<g id="XMLID_1209_">
						<path id="XMLID_1210_" d="M450.723,306.459c-2.729,0-4.949,2.221-4.949,4.95s2.22,4.95,4.949,4.95s4.95-2.221,4.95-4.95
							C455.673,308.679,453.452,306.459,450.723,306.459z M450.723,314.424c-1.663,0-3.015-1.353-3.015-3.015
							c0-1.663,1.353-3.015,3.015-3.015c1.663,0,3.015,1.353,3.015,3.015C453.739,313.071,452.386,314.424,450.723,314.424z"/>
					</g>
					<polygon id="XMLID_1206_" fill="#FFFFFF" points="445.116,331.489 454.972,325.136 454.209,328.056 457.058,325.553 
						466.221,330.811 456.033,320.428 					"/>
					<polyline id="XMLID_1160_" fill="#FFFFFF" points="466.221,323.824 468.865,322.719 468.494,324.14 469.88,322.922 
						474.129,325.575 469.382,320.428 466.221,323.824 					"/>
					<polygon id="XMLID_1155_" points="445.025,331.749 456.033,320.74 467.041,331.749 468.409,330.382 456.033,318.006 
						443.657,330.382 					"/>
					<polygon id="XMLID_1078_" points="464.896,322.417 466.263,323.784 469.307,320.74 475.006,326.439 476.373,325.072 
						469.307,318.006 					"/>
				</g>
			</g>
			<g id="XMLID_947_">
				<g id="XMLID_1008_">
					<rect id="XMLID_1059_" x="491.49" y="341.835" fill="#54DFFF" width="46.869" height="12.828"/>
					<rect id="XMLID_1057_" x="491.49" y="353.314" fill="#8DC63F" width="46.811" height="7.885"/>
					<path id="XMLID_1045_" fill="#F7941E" d="M509.26,349.527l-0.775-0.957v-1.64l0.775-0.866c0,0,1.686-0.137,1.777,0
						s0.911,1.23,0.911,1.367s0,1.276,0,1.276l-1.732,1.185L509.26,349.527z"/>
					<g id="XMLID_1025_">
						<path id="XMLID_1027_" d="M510.175,345.298c-1.388,0-2.517,1.129-2.517,2.517s1.129,2.517,2.517,2.517
							s2.517-1.129,2.517-2.517S511.563,345.298,510.175,345.298z M510.175,349.348c-0.845,0-1.533-0.688-1.533-1.533
							s0.688-1.533,1.533-1.533s1.533,0.688,1.533,1.533S511.021,349.348,510.175,349.348z"/>
					</g>
					<polygon id="XMLID_1023_" fill="#FFFFFF" points="507.324,358.026 512.336,354.795 511.948,356.28 513.397,355.007 
						518.056,357.681 512.876,352.401 					"/>
					<polyline id="XMLID_1020_" fill="#FFFFFF" points="518.056,354.128 519.401,353.566 519.212,354.289 519.917,353.669 
						522.077,355.019 519.663,352.401 518.056,354.128 					"/>
					<polygon id="XMLID_1016_" points="507.278,358.158 512.876,352.56 518.473,358.158 519.169,357.463 512.876,351.17 
						506.582,357.463 					"/>
					<polygon id="XMLID_1012_" points="517.382,353.413 518.078,354.108 519.626,352.56 522.523,355.458 523.219,354.763 
						519.626,351.17 					"/>
				</g>
			</g>
			
				<rect id="XMLID_909_" x="440.24" y="299.334" fill="none" stroke="#000000" stroke-width="2.4" stroke-linecap="round" stroke-linejoin="round" stroke-miterlimit="10" width="39.645" height="38.394"/>
			
				<rect id="XMLID_569_" x="491.49" y="341.835" fill="none" stroke="#000000" stroke-width="2.4" stroke-linecap="round" stroke-linejoin="round" stroke-miterlimit="10" width="46.869" height="19.706"/>
		</g>
		<g id="XMLID_39799_">
			
				<polygon id="XMLID_39800_" fill="#FFFFFF" stroke="#000000" stroke-width="2.1842" stroke-linecap="round" stroke-linejoin="round" stroke-miterlimit="10" points="
				375.538,372.289 345.662,362.009 355.997,391.83 361.593,382.068 371.4,391.876 375.662,387.614 365.855,377.807 			"/>
		</g>
	</g>
	<g>
		<g>
			<path fill="#FFFFFF" d="M204.451,150.746h-10.476c-2.164,0-3.918-1.754-3.918-3.918v-21.241c0-2.164,1.754-3.918,3.918-3.918
				h21.241c2.164,0,3.918,1.754,3.918,3.918v21.241c0,2.164-1.754,3.918-3.918,3.918h-6.233H204.451z"/>
		</g>
		<g>
			<path fill="#475993" d="M215.216,121.669h-21.241c-2.164,0-3.918,1.754-3.918,3.918v21.241c0,2.164,1.754,3.918,3.918,3.918
				h10.476l0.018-10.391h-2.699c-0.351,0-0.636-0.284-0.637-0.634l-0.013-3.349c-0.001-0.353,0.284-0.639,0.637-0.639h2.695v-3.236
				c0-3.756,2.294-5.801,5.644-5.801h2.749c0.352,0,0.637,0.285,0.637,0.637v2.824c0,0.352-0.285,0.637-0.637,0.637l-1.687,0.001
				c-1.822,0-2.175,0.866-2.175,2.136v2.802h4.004c0.381,0,0.677,0.333,0.633,0.712l-0.397,3.349
				c-0.038,0.321-0.31,0.562-0.632,0.562H209l-0.018,10.391h6.233c2.164,0,3.918-1.754,3.918-3.918v-21.241
				C219.134,123.423,217.38,121.669,215.216,121.669z"/>
		</g>
	</g>
	<g>
		
			<linearGradient id="SVGID_29_" gradientUnits="userSpaceOnUse" x1="147.7675" y1="502.1232" x2="147.7675" y2="473.3559" gradientTransform="matrix(1 0 0 1 0 -366)">
			<stop  offset="0" style="stop-color:#E09B3D"/>
			<stop  offset="0.3" style="stop-color:#C74C4D"/>
			<stop  offset="0.6" style="stop-color:#C21975"/>
			<stop  offset="1" style="stop-color:#7024C4"/>
		</linearGradient>
		<path fill="url(#SVGID_29_)" d="M153.644,107.13h-11.753c-4.776,0-8.662,3.886-8.662,8.662v11.753
			c0,4.776,3.886,8.662,8.662,8.662h11.753c4.776,0,8.662-3.886,8.662-8.662v-11.753C162.306,111.016,158.42,107.13,153.644,107.13z
			 M159.381,127.545c0,3.169-2.569,5.737-5.737,5.737h-11.753c-3.169,0-5.737-2.569-5.737-5.737v-11.753
			c0-3.169,2.569-5.737,5.737-5.737h11.753c3.169,0,5.737,2.569,5.737,5.737V127.545L159.381,127.545z"/>
		
			<linearGradient id="SVGID_30_" gradientUnits="userSpaceOnUse" x1="147.767" y1="502.1232" x2="147.767" y2="473.3559" gradientTransform="matrix(1 0 0 1 0 -366)">
			<stop  offset="0" style="stop-color:#E09B3D"/>
			<stop  offset="0.3" style="stop-color:#C74C4D"/>
			<stop  offset="0.6" style="stop-color:#C21975"/>
			<stop  offset="1" style="stop-color:#7024C4"/>
		</linearGradient>
		<path fill="url(#SVGID_30_)" d="M147.767,114.148c-4.147,0-7.521,3.374-7.521,7.521s3.374,7.521,7.521,7.521
			s7.521-3.374,7.521-7.521C155.288,117.522,151.914,114.148,147.767,114.148z M147.767,126.264c-2.538,0-4.595-2.057-4.595-4.595
			s2.057-4.595,4.595-4.595s4.595,2.057,4.595,4.595C152.363,124.207,150.305,126.264,147.767,126.264z"/>
		
			<linearGradient id="SVGID_31_" gradientUnits="userSpaceOnUse" x1="155.302" y1="502.1232" x2="155.302" y2="473.3559" gradientTransform="matrix(1 0 0 1 0 -366)">
			<stop  offset="0" style="stop-color:#E09B3D"/>
			<stop  offset="0.3" style="stop-color:#C74C4D"/>
			<stop  offset="0.6" style="stop-color:#C21975"/>
			<stop  offset="1" style="stop-color:#7024C4"/>
		</linearGradient>
		<circle fill="url(#SVGID_31_)" cx="155.302" cy="114.205" r="1.802"/>
	</g>
	<g>
		<rect x="312.315" y="64.604" fill="#FFFFFF" width="24.701" height="24.701"/>
		<path fill="#0077B7" d="M336.574,62.416h-23.817c-1.453,0-2.63,1.178-2.63,2.63v23.817c0,1.453,1.178,2.63,2.63,2.63h23.817
			c1.453,0,2.63-1.178,2.63-2.63V65.046C339.204,63.594,338.027,62.416,336.574,62.416z M319.124,87.524
			c0,0.423-0.343,0.765-0.765,0.765h-3.258c-0.423,0-0.765-0.343-0.765-0.765V73.865c0-0.423,0.343-0.765,0.765-0.765h3.258
			c0.423,0,0.765,0.343,0.765,0.765V87.524z M316.73,71.812c-1.71,0-3.095-1.386-3.095-3.095c0-1.71,1.386-3.095,3.095-3.095
			s3.095,1.386,3.095,3.095C319.825,70.426,318.439,71.812,316.73,71.812z M336.153,87.585c0,0.389-0.315,0.704-0.704,0.704h-3.496
			c-0.389,0-0.704-0.315-0.704-0.704v-6.407c0-0.956,0.28-4.188-2.498-4.188c-2.155,0-2.592,2.213-2.68,3.205v7.39
			c0,0.389-0.315,0.704-0.704,0.704h-3.382c-0.389,0-0.704-0.315-0.704-0.704V73.803c0-0.389,0.315-0.704,0.704-0.704h3.382
			c0.389,0,0.704,0.315,0.704,0.704v1.192c0.799-1.199,1.986-2.125,4.515-2.125c5.599,0,5.567,5.231,5.567,8.105V87.585
			L336.153,87.585z"/>
	</g>
	<path fill="#76A9EA" d="M376.642,17.838c-0.777,0.344-1.583,0.616-2.41,0.813c0.912-0.866,1.597-1.95,1.984-3.159l0,0
		c0.11-0.345-0.265-0.644-0.576-0.459l0,0c-1.151,0.683-2.391,1.195-3.685,1.522c-0.075,0.019-0.153,0.029-0.23,0.029
		c-0.236,0-0.465-0.088-0.645-0.246c-1.377-1.214-3.148-1.882-4.987-1.882c-0.796,0-1.599,0.124-2.388,0.369
		c-2.444,0.758-4.329,2.774-4.921,5.261c-0.222,0.933-0.282,1.867-0.179,2.775c0.012,0.104-0.038,0.177-0.068,0.211
		c-0.053,0.06-0.129,0.094-0.208,0.094c-0.009,0-0.018,0-0.027-0.001c-5.349-0.497-10.173-3.074-13.582-7.256l0,0
		c-0.174-0.213-0.507-0.187-0.646,0.051l0,0c-0.668,1.145-1.021,2.456-1.021,3.789c0,2.043,0.821,3.969,2.247,5.372
		c-0.6-0.142-1.18-0.366-1.719-0.665l0,0c-0.261-0.145-0.582,0.041-0.585,0.34l0,0c-0.037,3.035,1.74,5.736,4.402,6.952
		c-0.054,0.001-0.107,0.002-0.161,0.002c-0.422,0-0.849-0.041-1.27-0.121l0,0c-0.294-0.056-0.54,0.223-0.449,0.507l0,0
		c0.864,2.698,3.187,4.686,5.966,5.137c-2.307,1.549-4.993,2.365-7.789,2.365l-0.872-0.001c-0.269,0-0.496,0.175-0.564,0.435
		c-0.067,0.256,0.057,0.526,0.286,0.66c3.151,1.834,6.744,2.803,10.394,2.803c3.195,0,6.183-0.634,8.882-1.884
		c2.474-1.146,4.661-2.785,6.499-4.87c1.712-1.943,3.051-4.185,3.98-6.665c0.885-2.364,1.353-4.886,1.353-7.295v-0.115
		c0-0.387,0.175-0.751,0.48-0.998c1.158-0.94,2.166-2.047,2.997-3.289l0,0C377.348,18.089,377.002,17.678,376.642,17.838
		L376.642,17.838z"/>
	<g>
		<path fill="#F34A38" d="M225.226,198.148h6.028c-1.058,2.992-3.924,5.136-7.279,5.112c-4.071-0.03-7.437-3.287-7.595-7.355
			c-0.169-4.36,3.329-7.962,7.652-7.962c1.977,0,3.781,0.753,5.141,1.987c0.322,0.292,0.813,0.294,1.129-0.004l2.214-2.084
			c0.346-0.326,0.347-0.876,0.002-1.203c-2.157-2.043-5.05-3.317-8.241-3.379c-6.805-0.133-12.542,5.447-12.589,12.253
			c-0.048,6.858,5.497,12.432,12.343,12.432c6.584,0,11.963-5.155,12.323-11.649c0.01-0.081,0.016-2.833,0.016-2.833h-11.146
			c-0.457,0-0.827,0.37-0.827,0.827v3.031C224.398,197.778,224.769,198.148,225.226,198.148z"/>
		<path fill="#F34A38" d="M246.585,193.738v-2.961c0-0.4-0.325-0.725-0.725-0.725h-2.493c-0.4,0-0.725,0.324-0.725,0.725v2.961
			h-2.961c-0.4,0-0.725,0.324-0.725,0.725v2.493c0,0.4,0.325,0.725,0.725,0.725h2.961v2.961c0,0.4,0.324,0.725,0.725,0.725h2.493
			c0.4,0,0.725-0.325,0.725-0.725v-2.961h2.961c0.4,0,0.725-0.324,0.725-0.725v-2.493c0-0.4-0.324-0.725-0.725-0.725H246.585
			L246.585,193.738z"/>
	</g>
</g>
</svg>
